<?xml version="1.0" encoding="UTF-8"?>
<svg id="a" xmlns="http://www.w3.org/2000/svg" xmlns:xlink="http://www.w3.org/1999/xlink"
    viewBox="0 0 400 396.75">
    <defs>
        <linearGradient id="b" x1="-20.89" y1="102.87" x2="193.84" y2="368.66"
            gradientUnits="userSpaceOnUse">
            <stop offset=".03" stop-color="#012676" />
            <stop offset="1" stop-color="#f4c430" />
        </linearGradient>
        <linearGradient id="c" x1="38.73" y1="50.12" x2="256.14" y2="319.22" xlink:href="#b" />
        <linearGradient id="d" x1="30.44" y1="51.36" x2="254.18" y2="328.31" xlink:href="#b" />
        <linearGradient id="e" x1="33.15" y1="55.66" x2="250.03" y2="324.12" xlink:href="#b" />
        <linearGradient id="f" x1="26.06" y1="65.02" x2="241.25" y2="331.39" xlink:href="#b" />
        <linearGradient id="g" x1="99.58" y1=".35" x2="318.38" y2="271.17" xlink:href="#b" />
        <linearGradient id="h" x1="61.25" y1="31.3" x2="279.87" y2="301.92" xlink:href="#b" />
    </defs>
    <path
        d="m184.01,342.31c-.66.55-1.71,1.74-2.45,2.34-.75.59-5.12,5.6-6.6,7.01-.58.55-1.71,1.74-2.89,3.02.2,1.51.38,3.02.58,4.52.47-.19,1.08-.23,1.83.15,1.53.76,3.28,1.44,4.06,2.55.28.39.73.92,1.23,1.48.1-.14.19-.29.29-.42.01-.47.22-.94.76-1.25,1.67-.97,1.46-6.42,1.7-8.15.38-2.8,1.01-5.64,2.07-8.27.24-.6.55-1.18.91-1.73-.01-.17-.01-.35.05-.55.1-.34.18-.7.27-1.04-.43.3-1.21-.17-1.81.35Z"
        fill="url(#b)" />
    <path
        d="m172.45,208.19c-.28-.7-.51-1.43-.6-2.19-.85-7.1,2.97-13.6,3.1-20.59,0-.32.11-.58.25-.8-.62-1.99-.83-4.03-.85-6.11-1.86,2.13-3.76,4.23-5.77,6.23-4.78,4.75-10.92,10.42-18.11,10.98-.11,0-.25-.16-.25-.16,0,0-.12-4.37.55-6.46-2.18,2.91-6.88,8.48-6.88,8.48l-.38-.19s1.69-8.52,2.8-12.76c-2.79,3.53-6.54,10.51-8.08,13.46.21.68.44,1.34.61,1.76.44,1.06.7,2.08.66,3.48-.05,1.4-.35,1.78-1.05,1.78s-1.75-.04-1.75.68,2.62,1.54,3.01,2.38c.39.86.74,2.38.74,3.96s.09,3.02.22,3.65c.13.64,3.14,1.41,3.71,1.45.57.04,9.65.55,10.57.55h3.1s1.22-1.7,1.53-.85c.31.85.61,1.28.13,2.21-.47.93-1.13,1.36-1.4,1.79-.26.42.09,3.01.44,4.08.35,1.06-.96,1.14,1.4,2.93,1.18.89,2.1,1.38,2.77,1.67.67.29,1.09.37,1.24.46.22.12,1.22,1.22,1.73,1.91-2.07-7,2.75-18.05,6.54-23.76Z"
        fill="url(#c)" />
    <path
        d="m151.45,156.67c.47-.16.94-.33,1.41-.49-.35,0-.7,0-1.06,0-1.59.05-3.38.07-4.9.57-.83.27-1.65.59-2.48.88-1.03.37-2.08.76-3.15.99-.38.08-1.33,0-1.33,0l-.14-4.34s-4.79,3.33-4.47,3.48c-.12-.06-.32-.15-.32-.15,0,0,.26-3.34.93-4.95-1.47,1.84-4.34,5.55-4.34,5.55,0,0-5.34,1.29-7.99,1.76-.1.02-.25-.16-.25-.16,0,0,.72-5.63,1.82-8.31-1.49,2.31-4.95,6.6-4.95,6.6,0,0-2.23,2.07-3.64,2.6-1.76.66-3.63.88-5.5.95-4.22.16-8.37.24-12.51,1.21-3.87.9-7.51,2.37-10.97,4.26.05.18.12.36.22.53.87,1.53.7,1.79,2.62,4.64,1.92,2.84,5.32,4.54,6.64,5.14,1.31.59,2.58.89,3.06.85.48-.05,1.48-.21,2.1-.21s1.79,0,2.88.72c1.09.72,2.53,1.53,2.71,1.53.17,0,1.66-.6,1.66-.6,0,0,1.18.55,1.35,1.11.17.55.3,1.23,2.1,2.42.68.46,1.44.79,2.14,1.04,2.6-4.25,5.51-8.32,9.01-11.91,4.91-5.05,10.86-8.83,17.31-11.76,3.28-1.49,6.64-2.76,10.04-3.95Z"
        fill="url(#d)" />
    <path
        d="m208.27,282.51c-.68-6.05,4.32-13.18,6.62-18.56.46-1.08,1.1-2.4,1.9-3.68,1.59-4.65,1.4-13.71,3.39-20.48-3.23,2.26-6.61,4.3-10.29,5.72-2.94,1.14-6.02,1.86-8.96,2.98-1.33.51-4.94.47-4.94.47,0,0-.89-3.34-.76-4.8.15-1.68.5-5.41.5-5.41,0,0-1.7,4.65-2.58,6.94-.83,2.16-4.08,6.2-4.08,6.2h-.23s-4.66-.31-4.66-.31c0,0,.26-3.79.66-5.46.39-1.63.86-3.23,1.34-4.84-1.75,2.41-2.85,5.2-4.5,7.67-.55,5.81-1.96,11.69-5.53,14.72.02,3.98-.14,9.61-1.08,15.05.59-.01,1.09-.05,1.41-.12,1.31-.3,1.45-1.57,1.97-1.57s1.09.3,1.57.93c.48.64,1.88,1.07,2.49,1.07s.52-.52,1.49,0c.96.5,2.22,1.18,2.35,1.86.13.68.35,1.62.44,1.92.08.3.74.34.61,1.36s-.57,1.44-.52,2.42.66,1.36.96,2.08c.3.72.22,1.32.22,1.79s-.52,1.23-.09,2.08c.37.71.75,1.27.87,1.81.02.1.05.21.05.31,0,.63-.31,1.23,1.31,1.48,1.61.26,3.67.6,4.06.34.39-.25,1.66-.85,2.01-1.02s2.53-.25,2.57-.08c.03.12.47.79.78,1.3,1.25-3.71,3.78-7.7,5.28-10.11.81-1.29,1.97-2.76,3.36-4.08Z"
        fill="url(#e)" />
    <path
        d="m258.59,270.54c-.58-1.36-2.54-4.29-2.54-4.29,0,0,1.93-2.53,2.21-3.73-1.34.05-2.62.57-3.97.59-.15,0-.31-.13-.26-.29.42-1.32,1.44-2.28,2.09-3.48-1.59-.02-4.77.49-4.77.49l-.13-2.22s2.76-2.5,4.15-3.7c1.44-1.24,4.55-4.4,4.55-4.4,0,0-4.34,1.07-6.32,2-1.6.75-6.55,2.98-6.55,2.98l-1.56-1.06s-2.5-2.22-3.6-3.46c-2.41-2.72-4.63-5.66-6.5-8.78-1.26,6.49-3.92,12.97-6.38,19.28,2.53,7.14-3.53,19.22-6.66,25.06-.35,5.5-4.82,12.89-7.63,17.6.25,3.41-1.05,7.27-2,10.07-1.29,3.81-3.07,7.45-4.58,11.17.12,2.34-.1,4.71-.32,6.66-.44,3.74-.94,7.91-2.35,11.58.57.96.97,2.07,1.13,3.33.67,5.34-1.6,10.17-3.5,15.06,2.44,3.48.11,9.85-2.39,15.19,1.27,1.02,2.92,1.43,2.92,1.43,0,0,1.01.93,1.87,1.78.88.85,1.93,1.78,1.93,2.51s.57,1.78,1.27,2.12c.7.34,2.27.51,2.7,1.02.44.51,1.49,1.53.96,2.25-.52.73-1.66,1.36-2.01,1.79-.35.43-1.22.38-1.66,1.36-.44.98-.66,1.27-.44,2.89.15,1.09-.13,2.94,1.35,3.36,1.47.41,3.35-2.24,4.39-3.03.66-.51,1.45-.63,2.04-1.21,1.44-1.45,2.32-3.8,2.97-5.68.47-1.38.82-2.89,1.87-3.94.59-.58,1.36-.97,2.02-1.48,1.24-.95,1.57-2.5,2.75-3.36,1.22-.91,2.67-1.68,4.02-2.39,1.92-1.02,6.33-4.59,7.07-5.82.75-1.24,6.55-11.39,7.99-14.16.29-.56.75-1.24,1.31-1.98.09-.12.19-.25.29-.38.26-.33.52-.67.81-1.01,1.9-2.29,4.33-4.77,5.72-5.88.1-.08.19-.16.28-.22.08-.07.17-.13.24-.18,1.8-1.2,4.94-3.83,5.11-5.06.17-1.24.52-5.91,1.01-7.02.47-1.1.65-1.99.65-1.99,0,0-1.09-1.66-1.27-2.04-.17-.39-.39-2.21-.39-2.51s-.04-2.89,0-3.57c.04-.68,2.18-3.87,2.18-3.87,0,0-.39-.42-.96-1.02-.38-.39-.87-.88-1.1-1.4-.13-.27-.17-.54-.12-.81.17-.81,1.26-2.55,2.18-3.23.63-.46,2.65-1.69,4.01-2.95.65-.6,1.15-1.22,1.27-1.77.4-1.7,1.05-3.06,1.05-3.06,0,0,6.55-3.78,7.12-4.24.57-.47,1.4-.52,1.57-.68.17-.18.35-.64.87-1.36.14-.19.39-.43.69-.68-4.42-5.94-10.06-11.09-13.65-17.6-1.88-3.4-3.48-7.05-5.01-10.61Z"
        fill="url(#f)" />
    <path
        d="m399.98,127.55c-.22-1.7-.17-3.86-.7-6.2-.22-.99-.66-2.58-1.14-4.22-.64-2.23-1.36-4.53-1.66-5.43-.52-1.57-1.53-5.4-2.05-6.16-.52-.77-2.36-3.23-3.19-3.4-.83-.17-3.24-.55-4.81-.26-1.57.3-1.96.6-3.8.34-1.83-.25-2.96,0-3.58-.63-.61-.64-1.92-.68-2.53-.94-.24-.1-.64-.33-1.06-.61-.67-.46-1.43-1.03-1.74-1.43-.22-.27-.62-.65-1.06-1.04-.17-.16-.34-.31-.5-.46-.1-.09-.2-.18-.29-.27-.31-.29-.58-.54-.78-.74-.61-.63-1.96-1.57-3.05-2.04-1.09-.47-1.84-.85-2.45-1.53-.61-.68-2.89-3.14-2.89-3.14,0,0-.82-1.15-1.13-1.24-.31-.08-1.79-.76-2.23-1.02-.43-.25-3.36-2.54-5.37-3.78-2.01-1.23-5.59-3.99-6.37-4.04-.78-.04-4.58-.34-6.68-.16-.2.01-.43.04-.68.07-.12.01-.25.03-.38.05-.27.04-.55.08-.84.13-.29.05-.59.1-.9.15-.19.03-.38.07-.57.1-.37.07-.74.13-1.11.19-.23.04-.45.07-.67.11-.45.07-.9.14-1.31.18-.13.02-.27.03-.4.05-.09,0-.18.01-.27.02-.11.01-.22.02-.32.02-.34.02-.63.02-.85-.01-.15-.02-.31-.05-.49-.07-.19-.03-.39-.07-.59-.1-.02,0-.04,0-.06-.01-.04,0-.09-.02-.14-.03,0,0-.02,0-.03,0-.17-.03-.35-.07-.52-.11-.45-.1-.91-.21-1.3-.31-.08-.02-.15-.04-.23-.06-.04,0-.06-.01-.09-.02-.09-.03-.18-.05-.26-.07-.08-.03-.16-.05-.23-.07-.24-.07-.4-.14-.46-.18-.26-.22-2.35-1.11-3.14-1.2-.09,0-.22-.03-.39-.04-.01,0-.03,0-.04,0-.06,0-.14-.01-.22-.03-.13-.01-.28-.03-.43-.05-.06,0-.12,0-.18-.02-.11-.01-.23-.03-.35-.04-.01,0-.03,0-.04,0-.07,0-.14-.01-.21-.03-.13-.01-.27-.03-.41-.05-.39-.05-.79-.1-1.15-.14-.06,0-.11-.01-.17-.02-.22-.03-.43-.05-.61-.07-.1,0-.19-.02-.27-.03-.03,0-.06,0-.08,0-.01,0-.03,0-.03,0-.08,0-.14-.01-.19-.02-.03,0-.05,0-.07,0-.04,0-.06,0-.08,0-.18,0-2.27-.77-2.27-.77,0,0-3.67-1.95-4.58-2.29-.92-.34-1.93-1.15-3.02-.81-1.09.34-1.36.3-2.05.98-.7.68-2.36,1.44-2.36,1.44,0,0-.39-.8-.57-.84-.18-.05-1.75.55-1.75.55l-.35.08s-.92-.51-.87-.81c.04-.29.08-1.23.13-1.52.04-.3-2.05-4.55-2.84-5.62-.78-1.06-3.01-4.16-3.58-4.2-.57-.04-1.75.55-2.05.98-.31.42-.83.84-1.14.59-.3-.25-1.31-2.04-1.52-2.17-.22-.12-2.49-1.44-2.89-1.57,0,0-.02,0-.05-.01-.02,0-.05-.01-.08-.03-.29-.09-.97-.3-1.93-.59-.12-.03-.24-.07-.37-.11-.13-.04-.26-.08-.39-.12-.27-.08-.55-.16-.85-.25-.11-.03-.22-.07-.33-.1-.19-.05-.39-.12-.59-.18-.02,0-.04-.01-.06-.02-.22-.07-.45-.14-.68-.2-1.08-.33-2.25-.67-3.43-1.01-.18-.05-.37-.1-.55-.16-.53-.16-1.06-.31-1.58-.46-.25-.07-.5-.14-.74-.21-.32-.09-.63-.18-.94-.26-.52-.14-1.02-.28-1.5-.41-.29-.07-.57-.15-.84-.22-.13-.03-.27-.07-.39-.1-.18-.04-.36-.09-.52-.13-.38-.09-.71-.17-1.01-.23-.1-.03-.21-.05-.31-.06-.23-.05-.43-.08-.59-.11-3.02-.43-6.25-.98-6.64-.72-.39.25-2.67-.05-2.84-.09-.18-.04-1.97-.59-1.62-1.06.35-.47.92-1.19.92-1.19,0,0-.88-1.36-1.31-1.36s-1.92-.13-2.62.04c-.7.17-2.31.17-2.31.17,0,0-1.4-.3-1.84-1.19-.43-.89-2.01-2.76-2.18-3.06-.17-.3-2.15-1.4-2.31-1.4h-1.53s-1.7-.04-1.84-.17c-.37-.38-.21-1.16-.22-1.61-.01-.65-.18-.87-.35-1.43-.03-.13-.06-.25-.08-.37-.12-1.07.68-1.79.91-2.88,0-.03.7-3.24.57-4.25-.13-1.02-.39-3.06-.79-3.4-.39-.34-2.4-1.19-2.57-1.23-.17-.05-.61.59-1.01-.81-.39-1.41-.48-2.64-.83-2.89-.35-.26-1.35-.64-1.66-.64s-1.36.08-1.57-.08c-.22-.18-.48-1.28-.7-1.92-.22-.64-1.14-1.4-1.14-2s-1.31-3.1-1.52-5.05c-.22-1.96-.62-3.74-.62-4.47s.04-1.7.04-2.25-.26-1.95-.26-1.95l-.36-.98-3.38-2.26s-.93.11-1.05,1.13c-.11,1.02-1.16,3.51-1.98,4.19-.82.68-5.01,6.34-5.71,9.06-.7,2.72-2.56,4.65-3.37,5.55-.82.9-4.42,2.04-4.77,2.04s-2.8-.68-2.8-.68c0,0-3.49-.34-4.08-.12-.58.23-4.07.68-4.42.8-.35.12-4.31-.68-4.31-.68,0,0-.64-.65-1.33-1.31h0c-.73-.71-1.51-1.41-1.69-1.41-.35,0-2.8-.34-3.84.68-.3.29-.58.5-.84.66-.65.4-1.16.44-1.49.36-.47-.12-3.61-1.36-3.61-1.36,0,0-1.75,2.16-1.17,2.5.59.34,1.52,1.58,1.52,1.92,0,0,.38,2.13-.67,2.52-1.05.39-2.62-.48-3.58-.77-.96-.28-3.38-.62-3.84-.34-.47.29-1.17.63-2.22.54-1.05-.09-2.74-.8-2.82-.8-.09,0-.5-.39-1.57.34s-2.12,2.33-2.59,2.46c-.47.14-2.42-.42-3.24,0-.81.43-.23,1.79-1.31,1.9-1.08.12-2.42-1.05-2.85-.88-.44.17-1.25,1.59-1.52,2.07-.27.48-3.06,1.13-3.23,1.13-.07,0-.41-.06-.85-.14-.71-.14-1.64-.33-1.81-.37-.26-.05-2.1-.82-2.42-1.02-.31-.2-2.1-1.44-2.35-1.87-.26-.42-1.89-1.81-2.07-2.15-.17-.34-1.05-2.16-1.05-2.16,0,0,.55-1.45.23-2.24-.31-.8-2.18-1.84-2.38-2.38-.2-.54-.32-2.55-.29-2.75.03-.2.32-3.43.52-4.34s1.11-1.78,1.22-2.38c.12-.6-.15-1.58-.15-1.75s.24-1.67.24-1.67c0,0,2.76-1.42,2.8-2.16.03-.73-1.75-1.99-1.89-2.46-.15-.48-.38-1.45-.38-1.9s0-.88-.24-.99c-.23-.12-3.67-.82-3.67-.82,0,0,.03-.94.41-1.53.38-.6,1.1-2.24,1.16-2.38,0,0,0,0,0,0h-5.79c-.09.24-.24.48-.49.68-.5.39-3.06,1.95-3.18,2.38-.12.42.38,1.16-.55,1.31-.93.14-2.77.16-3.09.37-.32.2-2.21.65-2.5,1.16-.29.52-1.2,1.11-1.69,1.25-.49.14-2.27.68-2.77.93-.49.26-2.21.17-2.21.17,0,0-2.22-.48-2.54-.37-.31.12-2.7,1.25-2.65,1.67.06.42.2,2.92-.17,3.11-.38.2-.96-.28-1.08-.22-.12.05-.64.34-.79.56-.14.23-.75.48-.75.48,0,0-.55-.51-.64-.93-.08-.43-1.83-1.96-1.98-2.1-.15-.14-.75-.85-1.13-.71-.38.14-1.64.99-1.89,1.08-.27.08-1.49-.18-1.66-.23-.17-.05-2.1-.79-2.33-.68-.23.12-1.1.6-1.25.51-.15-.08-1.43-1.39-1.45-1.53-.03-.14.03-.65-.91-.65s-2.12-.14-2.91-.39c-.79-.26-2.82-1.62-2.82-1.62,0,0-.67.68.55,1.9,1.22,1.22,2.73,2.26,3.72,3.06.99.79,2.7,1.92,2.77,2.21.06.28.12.76-.12,1.19-.23.42-.73.56-.73.9s.06,1.36.06,1.48c0,.11.03,1.64.67,2.21.64.56,1.57,1.19,1.72,1.81.15.63.23,1.36.06,1.76-.17.39-.2,1.41-.06,1.61.01.02.03.04.05.07,0,.01.02.03.03.05.02.03.05.07.08.12.03.03.06.07.08.1h0c.06.07.12.14.2.2.02.02.04.03.07.05.03.02.06.03.08.05.01,0,.02.01.04.02.04.03.09.05.14.07.01,0,.03.01.04.02.05.02.1.04.17.06,0,0,.02,0,.03,0,.1.03.21.05.33.07.96.14,2.45.4,2.76.12.32-.28,1.66-.54,1.75-.46.09.09.82.6.73.97-.06.22-.12,1.04-.27,1.7-.1.43-.24.79-.43.88-.5.23-1.77.54-2.45,1.14-.67.6-1.4.73-1.84.56-.43-.17-1.78-.45-1.86-.17-.09.29.08,2.58-.18,3.18-.26.59-1.95,1.7-2.26,2.09-.32.4-.7,1.05-.99,1.02-.29-.03-.7-.71-.7-.71,0,0-.47-.22-.87.22-.41.46-1.84,1.93-2.1,1.96-.27.03-1.1-.48-1.47-.34-.37.14-1.24.6-1.62.99-.38.39-1.19.93-1.33,1.16-.15.22-.21.82-.38,1.1-.17.29-1.01.17-1.36.48-.35.31-.67,1.22-.76,1.5-.08.28-1.08.88-1.08.88,0,0-1.1.05-1.1-.54s.93-1.62.93-1.62c0,0-.18-.42-.32-.59-.15-.17-1.22-1.02-1.31-1.02-.09,0-1.37.29-1.54.42-.17.14-1.1,1.39-1.57,1.87-.47.48-3.21,1.02-3.56.57-.35-.46-1.8-1.48-2.21-1.99-.41-.51-1.75-2.21-2.24-2.29-.5-.09-2.04-.29-2.15-.29-.12,0-.96.17-1.14-.23-.17-.39-.38-2.66-.38-3s-.08-2.67-.27-2.92c-.17-.26-1.57-.46-1.75-.94-.17-.48-.41-2.49-.41-2.49,0,0-.38-.77-.7-.65-.32.11-1.28.48-1.51.99-.24.5-.85,1.22-1.05,1.22s-1.46.05-1.63.31c-.18.26-.52.82-.73.94s-1.02.2-1.4-.05c-.38-.26-1.4-1.19-1.72-.94-.32.26-.75.37-.55.73.2.37.87.91.96,1.11.09.2-.52.54-.61.54s-10.71-.31-11.18-.25c-.47.05-2.74-.23-3.03-.23s-2.45,1.08-2.45,2.18-.12,2.67.23,3.2c.35.54.82,1.27,1.45,1.45.64.16,2.31-.09,2.86.08s2.24.76,2.45,1.02c.2.26.35,1.24.35,1.24,0,0,.45,3.39-.38,3.09-.83-.3-2.28-.68-2.45-.73-.18-.04-2.32.39-2.32.39,0,0-1.36.16-1.66.35-.31.2-2.49.79-2.54,1.09-.04.3-.08,5.82.57,6.8.65.98.7,1.19,2.05,2.17,1.36.97,2.93,2.21,2.93,2.93s-.78,1.78.13,2.68c.92.89,1.66,1.7,1.35,2.84-.3,1.15-1.27,9.23-1.61,11.35-.35,2.13-2.84,13.26-3.14,14.58-.3,1.32-1.05,5.44-1.96,5.78-.92.34-2.75.55-3.14,0-.39-.55-.87-1.57-1.09-1.7-.22-.13-2.01.17-2.67.47-.65.3-1.66,1.19-1.75,1.57-.08.38-3.01.59-3.97.81-.96.21-2.71,1.02-3.58,1.02s-2.1-.43-2.62,0c-.52.42-1.75,1.74-2.35,2.16-.62.43-5.2,3.02-5.77,3.4-.57.39-1.92.86-2.05,1.58-.13.72-.91,2.25-.91,3.31s-.31,2.17-.62,2.43c-.3.25-1.88,1.86-2.14,2.84-.26.98,1.7,3.36,1.4,3.83-.31.47-2.45,1.53-3.45,2.04-1,.51-3.28,2.33-3.28,3.57s.05,1.7,0,2.16c-.04.47.4.77-.43,1.49-.83.73-1.01,1.15-1.01,1.87s1.05,2.13,1.62,2.51c.57.38.7,1.27.7,1.83s-.09,1.06.3,1.82c.4.77.96,2.13,1.27,2.64.31.51,1.62,1.15,1.93,1.57.3.43,2.01,1.83,2.88,3.06.87,1.23,1.4,1.79.78,2.77-.61.97-2.31,2.16-1.83,2.67.48.51,3.19.43,4.63.68,1.45.26,3.33-.08,3.89.94.57,1.02.65,4.33,1.66,4.84,1.01.51,4.58.6,6.11.43,1.53-.17,3.36-.77,4.06-1.7.7-.94,2.45-2.26,3.28-2.89.83-.64,2.05-1.7,2.45-1.7s.83.51.83,1.1-.7.85-.66,1.87c.04,1.02.57,1.45.39,2.34-.17.89-.57,1.87-.57,3.78s.17,5.44.35,6.12c.17.68,2.58.9,3.36.9s1.18.16,2.05-.77c.87-.93,1.88-.98,2.19-.89.3.08,1.53.59,2.01.85.48.25,2.54-.39,2.75-.39s1.18-.08,1.61.13c.44.21,1.92,1.09,2.23,1.07.31,0,1.66-1.07,2.05-.44.39.64-1.36,2.04.92,1.74,2.27-.29,5.5-2.89,5.55-3.44.04-.55-.66-1.87.39-2.08,1.05-.21,2.66-.34,3.01-.34s.83.38,1.22,0c.4-.39,1.14-.81,1.49-1.36.35-.55.83-1.15,1.36-1.19.52-.04,2.96-.13,3.1-.22.13-.08,1.71-1.1,1.96-1.48.01-.02.03-.03.04-.05.27-.38.82-.92,1.36-1.73.2-.29.47-.54.74-.75.52-.39,1.05-.61,1.05-.61,0,0,1.96-.17,3.23-.34,1.26-.17,4.67-.38,5.2-.25.52.12,2.23.42,2.58.3.35-.13.92-.9,1.36-.81.43.08,1.52.93,1.52,1.53s-.78,1.78-.82,2.21c-.05.42-.35.85,0,1.44.35.6.35,1.07.04,1.49-.31.42-1.27,1.19-.92,2.38.13.46.34.9.54,1.3.06.12.12.23.18.34.1.19.19.36.27.53,1.03-2.81,2.59-5.5,4.18-7.9,3.27-4.92,7.24-9.45,11.79-13.3,4.02-3.41,8.97-6.77,14.29-7.83,2.7-.54,5.13-.31,7.78.38,2.72.7,5.4,1.54,8.19,1.93-2.24-1.81-4.41-3.71-6.61-5.58-.16-.14-.07-.41.15-.42,5.64-.21,11.06-.97,16.64.28,1.83.41,3.64.91,5.45,1.46-.42-.56-.83-1.12-1.23-1.69-1.11-1.61-2.12-3.32-2.8-5.15-.55-1.48-1.21-3.19-1.17-4.8.04-1.46.6-2.73,1.41-3.94.92-1.38,2.27-2.72,2.58-4.38-3.85.37-7.84,2.17-11.68.97-.15-.05-.25-.19-.18-.34.87-1.74,2.47-3.56,2.47-5.58-1.57.69-5.74,2.61-5.74,2.61,0,0-3.75-2.94-5.75-4.08-2.34-1.33-4.33-3.02-6.55-4.51-1.15-.77-2.33-1.25-3.56-1.85-.83-.4-1.53-.84-2.01-1.63-.07-.12-.04-.25.07-.33,2.32-1.64,5.22-2.41,8.02-2.85,3.05-.48,6.12-.6,9.19-.39,7.11.49,14.11,2.16,20.29,5.7,5.45,3.12,10.51,7.1,15.17,11.25,4.7,4.18,9.18,8.79,13,13.85,2.02-4.79,4.55-9.4,7.76-13.51,1.04-1.33,2.15-2.61,3.33-3.83,6.01-6.16,13.68-10.27,22.35-11.5.13-.02.26.1.27.22.02,1.59-.21,3.34.34,4.87,2.22-2.61,4.21-5.26,7.9-5.78,3.36-.47,6.89-.02,10.27.17,3.59.2,7.19.56,10.69,1.37,3.18.74,6.48,1.77,8.97,3.92.12.11.1.29-.03.38-2.08,1.42-4.76,1.83-7.19,2.35-2.59.55-5.17,1.29-7.56,2.41-5.87,2.75-14.1,12.76-14.1,12.76,0,0-.24.1-.35.02-1.19-.86-2.49-1.61-3.8-2.28-1.17-.6-4.62-1.43-4.62-1.43,0,0,.9,3.59,1.43,4.27.87,1.12,2.48,3.74,2.48,3.74,0,0-.09.33-.28.31-2.05-.15-4.07-.7-6.13-.63.6,1.27,1.89,2.06,2.58,3.29.05.09.07.22-.02.29-1.47,1.24-3.4,1.7-4.97,2.79-1.76,1.22-3.33,2.66-4.84,4.16-3.01,2.99-5.46,6.26-7.28,10.04,1.98-1.29,3.99-2.55,6.03-3.75,10.32-6.06,22.27-11.59,34.64-11.01,6.66.31,12.59,3.11,18.23,6.4,4.72,2.76,10.27,5.85,13.17,10.57.12.19-.04.39-.25.37-.04,0-.08-.01-.12-.01-.04.12-.18.23-.34.16-2.09-.79-4.48-.12-6.54.46-1.81.5-3.63.94-5.44,1.43-3.86,1.05-7.76,2.16-11.8,2.18-.12,0-.27-.09-.27-.22.05-1.5.24-3.04-.21-4.49-2.73,1.62-3.86,4.89-6.56,6.57-.15.1-.38,0-.38-.19-.17-3.12-1.74-5.72-3.67-8.12-1.47,1.59-2.55,3.44-3.7,5.26-.79,1.26-1.59,2.73-2.82,3.64-1.04.77-2.23,1.11-3.49,1.36-1.71.35-3.4.76-5.11,1.08-3.78.7-7.62,1.08-11.47,1.05.08.03.16.07.23.1,6.88,3.06,13.5,6.41,18.92,11.64,4.61,4.45,8.69,9.51,12.19,14.82,1.2,1.83,2.35,3.72,3.4,5.66,1.44-2.52,3.11-4.92,4.98-7.16,4.27-5.11,9.39-9.94,15.04-13.6,4.83-3.12,10.4-5.24,16.27-5.07,7.26.2,14.08,2.8,20.31,6.25.15.09.2.32.03.42-2.61,1.5-4.74,3.9-7.01,5.84-2.41,2.05-4.74,4.17-6.29,6.93-.07.12-.2.16-.33.11-2.21-.85-4.05-2.5-6.36-3.11.56,2,1.93,3.69,2.54,5.68.04.13-.03.25-.16.31-1.62.69-2.91,1.82-4.34,2.79-1.3.88-2.65,1.71-3.97,2.58-1.42.94-2.83,1.94-4.05,3.1,2.33-.53,4.71-.88,7.08-1.09,6.26-.55,12.42.11,18.54,1.45,6.31,1.38,12.57,3.3,18.24,6.39.18.1.17.3.03.42-2.12,1.71-4.74,2.73-7.28,3.7-2.5.96-4.94,2.12-7.48,3-5.29,1.83-11.09,2.7-15.79,5.86-.17.11-.35-.01-.38-.19-.52-2.94-.24-5.91.06-8.85-1.71.94-2.52,2.97-3.33,4.62-.75,1.53-1.53,3.09-2.91,4.17-.15.12-.36-.02-.38-.19-.26-1.98.7-3.94.43-5.9-1.5,1.66-2.24,4.36-4.36,5.3-2.56,1.14-5.45,1.22-8.15,1.91-2.16.55-4.29,1.44-6.25,2.47-.77.41-1.74.91-2.58,1.53,5.09,3.11,9.7,6.93,13.64,11.35,4.22,4.74,7.6,10.15,10.19,15.88,2.64,5.83,4.93,12,5.8,18.34.87,6.39.26,12.66-1.2,18.92-.83,3.56-1.7,7.12-2.56,10.67-.51,2.11-1.07,4.38-2.22,6.29.42-.26.79-.46.98-.52.57-.17,2.54.17,3.06-.12.52-.3,1.66-1.75,1.83-2,.18-.26.92-.56,1.49-.51.57.04,4.5,2.17,5.28,2.29.78.13,3.23-1.87,2.97-2.04-.26-.17-1.88-.64-2.05-.85-.18-.21-.57-.68-.3-.93.26-.26,1.61-.94,1.75-1.06.13-.13,1.83-1.15,2.57-1.54.74-.38,2.27-.42,2.27-.42,0,0,.62-.55.62-.89s-1.01-1.15,0-1.83c.83-.56,2.61-1.07,3.31-1.2.15-.03.24-.04.27-.03.18.04,1.18.04.31.81-.87.76-1.18.8-1.31,1.14-.13.34-.48.94.08.94s1.75-.17,2.27-.3c.38-.1,1.01-.38,1.49-.73.19-.13.36-.27.48-.41.44-.51,1.22-.93,1.62-.93s2.53.04,2.75.34.09.55.92.64c.83.08,2.28,0,2.67-.09.39-.09,1.22-1.36,1.83-1.49.61-.12,2.01,0,2.01,0,0,0,7.38.04,8.16-.34.79-.38,1.53-.59,1.53-.93v-.89s-1.22-.43-1.26-.73c-.04-.29-.22-1.19.17-1.44.39-.26.74-.77,1.75-.98,1.01-.21,1.71-.09,1.71-.59s-.52-1.07,0-1.32c.52-.26,3.45-.72,4.28-1.02s3.54-.81,3.24-1.92c-.31-1.1-1.18-2.42-1.36-3.01-.18-.6.48-1.49,1.01-3.4.04-.16.1-.32.16-.47.64-1.65,2.11-2.76,2.11-2.76,0,0,.06-.42.21-.92.1-.37.27-.79.49-1.12.52-.77,1.31-.9,2.05-2,.75-1.1,1.8-3.66,2.58-4.84.79-1.2,1.4-2.68,1.96-3.28.57-.59,3.33-1.91,3.45-2.34.13-.42.48-3.06.48-3.06,0,0,.09-4.37,0-5.35-.09-.98-.49-2.55.04-3.61.09-.19.2-.41.33-.65.42-.82.97-1.8,1.52-2.43.16-.18.31-.34.47-.45.83-.59,2.28-1.79,2.28-1.79,0,0,.92-1.36.82-1.95-.08-.59-.7-3.61-.74-3.78-.04-.17-.31-3.53.26-5.65.57-2.13.83-4.51,1.44-6.12.61-1.62,1.05-2.81,1.13-3.4.09-.6-.04-4.13-.22-4.85-.17-.72-.09-3.23-.48-4.42-.39-1.19-.96-2.42-.74-3.44.22-1.02,1.45-2.38,1.47-2.59.01-.22-.06-1.75,0-2.64.06-.89.25-2.21,0-3.06-.25-.85-.82-1.19-.34-2,.48-.8.92-1.57.79-2.16-.13-.6-.82-1.66.02-2.56.85-.89,2.68-2.93,2.99-2.63.31.3.04,1.53,1.14,1.11,1.09-.43,2.23-1.02,2.62-1.92.39-.89,1.66-3.91,2.4-5.06.74-1.14,4.1-4.2,4.84-5.65.19-.37.51-.95.9-1.65.08-.16.17-.32.27-.49.11-.18.21-.37.32-.57.13-.23.26-.47.38-.7.08-.14.15-.27.22-.41.15-.27.3-.54.45-.8.3-.55.58-1.06.8-1.47.03-.07.07-.13.1-.19.01-.03.03-.05.03-.07.05-.09.1-.18.14-.25.1-.21.18-.37.22-.46.2-.45.89-1.54,1.46-2.32.28-.4.53-.71.68-.83.18-.14.6-.52,1.08-.92.67-.58,1.45-1.22,1.8-1.37.36-.15.62.12,1.01.07.03,0,.06-.01.1-.03.03,0,.07-.02.1-.03.09-.04.2-.1.3-.19.06-.05.11-.09.17-.15.09-.09.18-.19.28-.31.07-.09.15-.18.22-.29,1.23-1.7,4.81-5.95,5.55-6.71.74-.77,3.98-3.06,4.42-3.79.27-.46,1.89-3.07,3.14-5.12.71-1.18,1.31-2.16,1.45-2.44.36-.71,1.73-9.36,1.77-12.01,0-.22,0-.39-.02-.52Z"
        fill="url(#g)" />
    <path
        d="m188.85,218.72c.76-.35,1.51-.72,2.27-1.07,3.24-1.47,6.43-2.91,9.88-3.85,3.45-.94,6.9-2.04,10.4-2.81,3.13-.68,6.31-1.13,9.5-1.4-.03-.02-.07-.05-.1-.07-3.37-2.42-6.77-5-9.81-7.81-2.06-1.89-4.43-4.09-5.57-6.67-1.39-3.16,2.64-8.17,2.64-8.17,0,0-4.04,1.95-6.35,1.94-.18,0,0,0-.24-.35-.24-.35,2.21-2.58,3.45-3.73,1.21-1.13,3.01-4.17,3.01-4.17,0,0-5.7,1.38-8.33,2.43-1.91.77-3.43,1.24-5.24-.04-.66-.46-1.28-.98-1.93-1.45-.41,1.86-1.04,3.59-1.99,5.06,0,.03.02.05.02.08.05,5.26,1.69,16.53-1.6,22.94h0c-.28.54-.58,1.06-.93,1.52,0,.04.01.07,0,.11-.28,2.2-.43,5.15-.73,8.29.55-.26,1.1-.52,1.65-.78Z"
        fill="url(#h)" />
</svg>