<?xml version="1.0" encoding="UTF-8"?>
<svg id="uuid-c9bfa13f-f7f0-42d1-a892-0eaf105e3be2" xmlns="http://www.w3.org/2000/svg"
    xmlns:xlink="http://www.w3.org/1999/xlink" viewBox="0 0 1366 463.2">
    <defs>
        <linearGradient id="uuid-a528056b-fe69-4c83-83f2-8346f1cae49f" x1="1368.38" y1="131.65"
            x2="459.83" y2="258.18" gradientUnits="userSpaceOnUse">
            <stop offset="0" stop-color="#f4c430"></stop>
            <stop offset=".07" stop-color="#c5bc31"></stop>
            <stop offset=".19" stop-color="#80b134"></stop>
            <stop offset=".29" stop-color="#49a837"></stop>
            <stop offset=".38" stop-color="#21a238"></stop>
            <stop offset=".46" stop-color="#089e39"></stop>
            <stop offset=".5" stop-color="#009d3a"></stop>
            <stop offset=".65" stop-color="#006e51"></stop>
            <stop offset=".8" stop-color="#004765"></stop>
            <stop offset=".93" stop-color="#002e71"></stop>
            <stop offset="1" stop-color="#012676"></stop>
        </linearGradient>
        <linearGradient id="uuid-019b9f89-33be-4781-bdc8-3eb26e2d2fe4" x1="1367.99" y1="128.89"
            x2="459.44" y2="255.41" xlink:href="#uuid-a528056b-fe69-4c83-83f2-8346f1cae49f" />
        <linearGradient id="uuid-0b36e3b9-0112-4773-aef9-14a15a09892c" x1="1372.62" y1="162.12"
            x2="464.07" y2="288.65" xlink:href="#uuid-a528056b-fe69-4c83-83f2-8346f1cae49f" />
        <linearGradient id="uuid-a0faa7c7-ac76-471d-8696-13706b478919" x1="1374.35" y1="174.59"
            x2="465.81" y2="301.11" xlink:href="#uuid-a528056b-fe69-4c83-83f2-8346f1cae49f" />
        <linearGradient id="uuid-62160716-74ad-42c4-8266-24f795d588d2" x1="1376.28" y1="188.42"
            x2="467.73" y2="314.94" xlink:href="#uuid-a528056b-fe69-4c83-83f2-8346f1cae49f" />
        <linearGradient id="uuid-3a534953-1402-4a0b-a117-3afadef31216" x1="1378.56" y1="204.78"
            x2="470.01" y2="331.31" xlink:href="#uuid-a528056b-fe69-4c83-83f2-8346f1cae49f" />
        <linearGradient id="uuid-8f19274b-f4d5-4eec-8c70-919dd0ea562e" x1="1380.39" y1="217.9"
            x2="471.84" y2="344.43" xlink:href="#uuid-a528056b-fe69-4c83-83f2-8346f1cae49f" />
        <linearGradient id="uuid-3aea07bb-e223-4377-85c1-62fc19fc26ed" x1="1383.09" y1="237.29"
            x2="474.54" y2="363.81" xlink:href="#uuid-a528056b-fe69-4c83-83f2-8346f1cae49f" />
        <linearGradient id="uuid-26f074cd-1c28-454a-ade0-d8201e7917fa" x1="1384.77" y1="249.35"
            x2="476.22" y2="375.88" xlink:href="#uuid-a528056b-fe69-4c83-83f2-8346f1cae49f" />
        <linearGradient id="uuid-d3c80b6f-cbb4-48d2-9b47-1a388ba08b1c" x1="-31.26" y1="121.28"
            x2="218.75" y2="430.73" gradientUnits="userSpaceOnUse">

            <stop offset="0" stop-color="#f4c430">
            </stop>
            <stop offset="0.5" stop-color="#009D3A">
            </stop>
            <stop offset="1" stop-color="#1f78b4">

            </stop>
            <animateTransform
                attributeName="gradientTransform"
                type="translate"
                values="0 0; 0 100%;"
                dur="40s"
                repeatCount="indefinite"
            />
        </linearGradient>
        <linearGradient id="uuid-bfed67a9-2e8a-4dca-9a95-6e7d8d9f226a" x1="40.8" y1="63.06"
            x2="290.8" y2="372.52" xlink:href="#uuid-d3c80b6f-cbb4-48d2-9b47-1a388ba08b1c" />
        <linearGradient id="uuid-361e2c1a-78ef-4c70-8f47-4b1da3b218ef" x1="34.98" y1="67.76"
            x2="284.99" y2="377.22" xlink:href="#uuid-d3c80b6f-cbb4-48d2-9b47-1a388ba08b1c" />
        <linearGradient id="uuid-f270c74c-f4a1-4d60-8dc2-72d019d14d7e" x1="32.92" y1="69.43"
            x2="282.93" y2="378.88" xlink:href="#uuid-d3c80b6f-cbb4-48d2-9b47-1a388ba08b1c" />
        <linearGradient id="uuid-72f9dc8b-5254-4423-9a33-4880be12015d" x1="21.99" y1="78.26"
            x2="271.99" y2="387.71" xlink:href="#uuid-d3c80b6f-cbb4-48d2-9b47-1a388ba08b1c" />
        <linearGradient id="uuid-88648da7-1213-4394-9698-120b676f22fd" x1="110.78" y1="6.53"
            x2="360.78" y2="315.99" xlink:href="#uuid-d3c80b6f-cbb4-48d2-9b47-1a388ba08b1c" />
        <linearGradient id="uuid-89247402-9fbb-4813-90b9-542df551d5a7" x1="66.45" y1="42.34"
            x2="316.45" y2="351.8" xlink:href="#uuid-d3c80b6f-cbb4-48d2-9b47-1a388ba08b1c" />
    </defs>
    <path
        d="m356.19,371.22c4.6-.19,8.38-.29,11.35-.29,11.97,0,19.3.38,21.99,1.15,1.44.38,2.87,1.13,4.31,2.23,1.44,1.1,2.16,2.08,2.16,2.95,0,.77-.34,1.58-1.01,2.44-.67.86-1.44,1.49-2.3,1.87-.77.38-1.92.58-3.45.58-1.82,0-3.5-.05-5.03-.14-1.06-.09-2.44-.14-4.17-.14-3.64,0-5.8.77-6.47,2.3-.19.57-.77,2.97-1.72,7.19-.57,2.78-1.96,9.1-4.17,18.97-2.21,9.87-3.74,16.91-4.6,21.12-.67,3.93-1.65,8.43-2.95,13.51-1.29,5.08-2.18,7.95-2.66,8.62-.96,1.44-2.35,2.35-4.17,2.73-.77.19-1.77-.24-3.02-1.29-1.53-1.34-2.3-2.83-2.3-4.46,0-1.44.81-5.99,2.44-13.65,2.39-10.92,3.69-16.67,3.88-17.25,1.92-6.9,4.07-15.85,6.47-26.87.77-4.02,1.15-6.85,1.15-8.48,0-1.05-.14-1.63-.43-1.72-.57-.29-2.78-.43-6.61-.43-4.12,0-6.75-.29-7.9-.86-.77-.38-1.63-1.12-2.59-2.23-.96-1.1-1.44-1.89-1.44-2.37,0-.19.48-.86,1.44-2.01,1.24-1.44,2.49-2.32,3.74-2.66,1.24-.33,3.93-.6,8.05-.79Z"
        fill="#012676" />
    <path
        d="m442.56,373.38c.67-.38,1.39-.58,2.16-.58,1.82,0,3.26.91,4.31,2.73.29.58.43,1.06.43,1.44,0,.58-.72,3.16-2.16,7.76-3.07,9.97-4.69,15.95-4.89,17.96-.1,1.06-1.1,5.41-3.02,13.08-1.92,7.67-3.26,12.74-4.02,15.23-1.72,5.37-4.41,10.8-8.05,16.31-3.64,5.51-6.8,8.89-9.48,10.13-2.78,1.25-6.32,1.87-10.63,1.87-1.15,0-1.92-.05-2.3-.14-4.12-.86-7.67-3.33-10.63-7.4-2.97-4.07-4.79-9.08-5.46-15.02-.19-1.92-.29-3.11-.29-3.59,0-1.34.57-4.65,1.72-9.92,1.15-5.08,2.49-10.44,4.02-16.09.77-2.59,1.87-6.66,3.31-12.21,1.44-5.56,2.68-9.96,3.74-13.22,1.15-3.54,2.08-5.87,2.8-6.97.72-1.1,1.75-1.65,3.09-1.65.96,0,1.94.38,2.95,1.15,1.01.77,1.51,1.49,1.51,2.16,0,.29-1.1,4.36-3.31,12.22-4.6,16.09-7.52,26.66-8.77,31.69-1.25,5.03-1.87,9.22-1.87,12.57,0,.29.02.74.07,1.37.05.62.07,1.13.07,1.51.19,3.93.69,6.88,1.51,8.84.81,1.96,2.18,3.43,4.1,4.38,1.24.48,2.3.72,3.16.72s1.58-.05,2.16-.14c1.92-.29,3.47-.77,4.67-1.44,1.2-.67,2.61-1.92,4.24-3.74,3.16-3.35,5.8-8.43,7.9-15.23,1.34-4.6,3.23-11.5,5.68-20.69,2.44-9.2,3.71-14.42,3.81-15.66.19-1.72.62-3.83,1.29-6.32,2.01-7.57,4.07-11.93,6.18-13.08Z"
        fill="#012676" />
    <path
        d="m468.71,369.5c.38-.19,1.34-.29,2.87-.29,2.97,0,5.75.38,8.33,1.15,4.41,1.34,7.83,3.79,10.27,7.33,2.44,3.54,3.66,7.71,3.66,12.5,0,2.87-.53,5.99-1.58,9.34-1.25,4.12-4.22,8.43-8.91,12.93-2.49,2.4-4.26,3.93-5.32,4.6-1.06.67-2.78,1.29-5.17,1.87-3.55.86-5.32,1.92-5.32,3.16,0,.48,2.35,5.22,7.04,14.23,4.98,9.58,7.47,15.09,7.47,16.53,0,.67-.24,1.25-.72,1.72-.67.67-1.49,1.01-2.44,1.01-2.21,0-3.98-.86-5.32-2.59-.19-.29-2.44-4.19-6.75-11.71-4.31-7.52-6.56-11.42-6.75-11.71-.57-.67-1.25-.98-2.01-.93-.77.05-1.29.41-1.58,1.08-.48.86-1.2,3.31-2.16,7.33-2.59,9.68-4.55,15.19-5.89,16.53-.96.96-1.82,1.44-2.59,1.44-.67,0-1.44-.43-2.3-1.29-1.06-1.24-1.58-2.44-1.58-3.59,0-1.44.72-4.69,2.16-9.77,1.15-3.74,2.71-9.27,4.67-16.6,1.96-7.33,3.52-12.96,4.67-16.89,2.3-7.66,4.17-14.32,5.6-19.97,1.72-7.09,3.06-11.5,4.02-13.22.96-1.72,2.83-3.11,5.6-4.17Zm6.9,9.77c-1.44-.38-2.4-.57-2.87-.57s-.96.24-1.44.72c-.57.57-2.25,5.94-5.03,16.09-2.59,9.68-3.88,14.85-3.88,15.52,0,.29.48.43,1.44.43,1.72,0,4.17-.69,7.33-2.08,3.16-1.39,5.65-2.9,7.47-4.53,1.82-1.63,3.35-3.88,4.6-6.75,1.24-2.87,1.87-5.51,1.87-7.9,0-.19-.02-.45-.07-.79-.05-.33-.07-.55-.07-.65-.38-2.2-1.41-4.17-3.09-5.89-1.68-1.72-3.76-2.92-6.25-3.59Z"
        fill="#012676" />
    <path
        d="m512.4,374.82c.86-.77,1.87-1.15,3.02-1.15.86,0,1.48.24,1.87.72.96,1.15,1.44,2.97,1.44,5.46,0,.67-.1,1.39-.29,2.16-.86,2.88-1.96,6.32-3.31,10.35-2.4,6.52-4.22,12.98-5.46,19.4-.67,3.07-1.82,6.32-3.45,9.77-1.34,2.78-2.23,4.81-2.66,6.11-.43,1.29-.84,3.23-1.22,5.82-.29,1.82-1.39,5.56-3.31,11.21-1.92,5.65-3.16,8.86-3.74,9.63-.48.67-1.29,1.29-2.44,1.87l-1.72.86-2.01-1.87c-1.44-1.44-2.3-2.54-2.59-3.31-.1-.19-.14-.43-.14-.72,0-1.34,3.83-14.23,11.5-38.66.38-1.34,1.01-3.4,1.87-6.18.86-2.78,1.6-5.17,2.23-7.19.62-2.01,1.12-3.59,1.51-4.74,1.24-4.12,2.78-8.17,4.6-12.14,1.82-3.97,3.26-6.44,4.31-7.4Zm11.21-26.44c.77-.29,1.44-.43,2.01-.43.86,0,1.7.24,2.51.72.81.48,1.22,1.1,1.22,1.87s-.81,3.04-2.44,6.83c-1.63,3.79-2.78,6.06-3.45,6.83-.57.67-1.29,1.01-2.16,1.01-1.15,0-2.06-.43-2.73-1.29-.86-1.05-1.29-2.01-1.29-2.87,0-.58.33-1.87,1.01-3.88,1.92-5.08,3.69-8,5.32-8.77Z"
        fill="#012676" />
    <path
        d="m553.06,370.65c1.34-.38,2.82-.58,4.46-.58,2.59,0,5.17.38,7.76,1.15,3.83,1.15,6.97,3.33,9.41,6.54,2.44,3.21,3.66,6.59,3.66,10.13,0,2.11-.48,4.07-1.44,5.89-1.06,2.21-2.35,3.31-3.88,3.31-.57,0-1.2-.14-1.87-.43-1.63-.67-2.64-2.73-3.02-6.18-.48-4.21-1.68-6.99-3.59-8.33-.86-.67-2.44-1.05-4.74-1.15h-1.44c-1.44,0-2.83.43-4.17,1.29-3.16,1.82-4.89,4.5-5.17,8.05v1.29c0,2.11,1.53,5.17,4.6,9.2,5.94,7.76,9.63,13.99,11.07,18.68.86,2.49,1.29,6.52,1.29,12.07,0,3.26-.19,5.65-.57,7.19-2.01,9.68-7.81,15.71-17.39,18.11-2.2.48-3.59.72-4.17.72s-1.58-.14-3.02-.43c-6.61-1.34-11.31-3.52-14.08-6.54-2.78-3.02-4.36-7.83-4.74-14.44-.1-1.05-.14-2.39-.14-4.02,0-2.78.77-5.75,2.3-8.91,2.11-4.12,4.36-6.18,6.75-6.18,2.78,0,4.17,1.49,4.17,4.45,0,1.53-.43,3.45-1.29,5.75-.48,1.34-.81,3.59-1.01,6.75v2.01c0,4.12,1.15,7.33,3.45,9.63l2.01,2.16,3.88-.29c6.8-.29,10.97-3.69,12.5-10.2.77-3.26,1.15-5.89,1.15-7.9,0-4.5-2.35-9.77-7.04-15.81-4.79-6.23-7.9-11.93-9.34-17.1-.48-1.72-.72-3.54-.72-5.46,0-3.26.57-6.08,1.72-8.48,1.15-2.49,2.97-4.91,5.46-7.26,2.49-2.35,4.89-3.9,7.19-4.67Z"
        fill="#012676" />
    <path
        d="m595.74,372.8c.77-.19,1.24-.29,1.44-.29.96,0,1.77.58,2.44,1.72.48.77,1.56,3.83,3.23,9.2,1.68,5.37,2.85,9.53,3.52,12.5.86,3.93,1.72,5.89,2.59,5.89,1.24,0,4.89-4.21,10.92-12.65,7.57-10.44,12.12-15.66,13.65-15.66,2.49,0,3.74,2.11,3.74,6.32,0,3.07-1.56,11.23-4.67,24.5-3.11,13.27-6.06,24.21-8.84,32.84-1.53,4.79-2.3,7.38-2.3,7.76,0,.1-.67,1.87-2.01,5.32-1.34,3.26-2.44,5.17-3.31,5.75-.96.58-1.82.86-2.59.86-1.82,0-2.73-1.34-2.73-4.02,0-2.2,1.53-8.86,4.6-19.97,3.83-14.46,5.75-23.76,5.75-27.88,0-.57-.05-.91-.14-1.01-.1-.09-.19-.14-.29-.14-.96,0-3.45,2.78-7.47,8.33-2.11,2.97-3.62,4.84-4.53,5.6-.91.77-2.04,1.15-3.38,1.15-1.44,0-2.44-.29-3.02-.86-.57-.58-1.39-2.78-2.44-6.61-1.06-3.83-1.99-7.47-2.8-10.92-.81-3.45-1.37-5.17-1.65-5.17-.19,0-.48.34-.86,1.01-.77,2.01-2.83,9.68-6.18,22.99-3.35,13.32-5.6,22.8-6.75,28.45-.86,4.7-2.4,7.76-4.6,9.2-1.06.58-2.01.62-2.87.14-.67-.38-1.39-1.05-2.16-2.01-.86-1.15-1.29-2.3-1.29-3.45s.86-4.69,2.59-10.63c.48-1.53,1.92-6.75,4.31-15.66,1.34-5.27,3.93-14.44,7.76-27.52,3.83-13.08,5.99-20.14,6.47-21.2.86-2.01,2.16-3.31,3.88-3.88Z"
        fill="#012676" />
    <path
        d="m665.15,368.92c1.15-.29,2.11-.43,2.87-.43.67,0,1.87.14,3.59.43,8.53,1.44,13.51,6.61,14.95,15.52.29,2.01.43,4.79.43,8.33s-.14,6.61-.43,9.2c-1.25,10.54-4.07,20.41-8.48,29.6-1.34,2.78-3.43,5.84-6.25,9.2-2.83,3.36-5.53,5.94-8.12,7.76-2.49,1.72-5.41,3.21-8.77,4.46-3.35,1.25-6.18,1.87-8.48,1.87-.48,0-1.1-.09-1.87-.29-3.64-1.24-6.8-4.1-9.48-8.55-2.68-4.46-4.36-9.65-5.03-15.59-.19-2.11-.29-3.35-.29-3.74,0-1.34.33-3.83,1.01-7.47.86-5.08,1.6-8.64,2.23-10.71.62-2.06,1.84-5.34,3.66-9.84,2.59-6.23,5.56-11.54,8.91-15.95,2.3-2.87,5.41-5.72,9.34-8.55,3.93-2.82,7.33-4.57,10.2-5.25Zm6.04,9.49c-1.72-.38-2.97-.58-3.74-.58-2.3,0-4.79.72-7.47,2.16-3.83,1.92-7.81,7.11-11.93,15.59-4.12,8.48-6.71,16.79-7.76,24.93-.38,2.68-.57,5.84-.57,9.49,0,3.93.24,6.75.72,8.48,1.15,3.64,3.02,5.7,5.6,6.18.29.1.72.14,1.29.14,2.68,0,5.36-.72,8.05-2.16,2.2-1.15,4.69-3.42,7.47-6.83,2.78-3.4,4.89-6.78,6.32-10.13,2.3-5.17,4.5-12.17,6.61-20.98.86-3.83,1.29-9.34,1.29-16.53,0-2.11-.1-3.64-.29-4.6-.48-2.49-2.35-4.21-5.6-5.17Z"
        fill="#012676" />
    <path
        d="m496.16,170.82c1.53-.38,2.87-.58,4.02-.58,4.98,0,10.82,1.39,17.53,4.17,6.71,2.78,11.59,5.8,14.66,9.05,7.66,8.82,11.5,20.31,11.5,34.49,0,5.56-.67,10.35-2.01,14.37-3.64,11.88-11.21,21.75-22.71,29.6-11.5,7.86-24.81,12.55-39.95,14.08-4.98.39-7.86,1.25-8.62,2.59-1.34,2.3-2.49,5.75-3.45,10.35-.96,4.6-1.73,7.76-2.3,9.48-.77,2.69-1.92,7.47-3.45,14.37-1.54,6.9-3.74,13.36-6.61,19.4s-5.46,9.44-7.76,10.2h-.58c-1.34,0-2.83-.81-4.45-2.44-1.63-1.63-2.73-3.49-3.31-5.61-.19-.57-.29-1.53-.29-2.87,0-2.68,2.2-11.11,6.61-25.29,2.3-7.47,4.89-18.2,7.76-32.19,2.87-13.98,6.51-26.25,10.92-36.79,2.11-4.79,6.23-15.9,12.36-33.34,5.55-15.9,8.62-24.43,9.2-25.58,1.53-3.26,5.17-5.75,10.92-7.47Zm19.26,22.13c-3.07-1.34-6.32-2.01-9.77-2.01-2.3,0-4.02.39-5.17,1.15-1.54,1.15-5.03,10.35-10.49,27.59-5.46,17.24-8.19,27.78-8.19,31.62,0,1.72,1.15,2.59,3.45,2.59,1.91,0,5.36-.76,10.35-2.3,12.07-4.21,20.98-11.78,26.73-22.71,1.91-3.64,2.87-7.09,2.87-10.35v-3.45c-.19-6.7-.96-11.68-2.3-14.94-1.34-3.26-3.83-5.65-7.47-7.19Z"
        fill="url(#uuid-a528056b-fe69-4c83-83f2-8346f1cae49f)" />
    <path
        d="m580.94,184.32c1.72-1.53,3.74-2.3,6.03-2.3,1.73,0,2.97.48,3.74,1.44,1.91,2.3,2.87,5.94,2.87,10.92,0,1.34-.19,2.78-.57,4.31-1.73,5.75-3.93,12.65-6.61,20.69-4.79,13.03-8.43,25.97-10.92,38.8-1.34,6.13-3.64,12.65-6.9,19.55-2.69,5.56-4.46,9.63-5.32,12.22-.86,2.59-1.68,6.47-2.44,11.64-.58,3.64-2.78,11.11-6.61,22.42-3.84,11.31-6.32,17.73-7.47,19.26-.96,1.34-2.59,2.59-4.89,3.74l-3.45,1.72-4.02-3.74c-2.87-2.87-4.6-5.07-5.17-6.61-.19-.38-.29-.86-.29-1.44,0-2.68,7.66-28.45,22.99-77.31.76-2.68,2.01-6.8,3.74-12.36,1.72-5.56,3.21-10.35,4.45-14.37,1.24-4.02,2.25-7.19,3.02-9.49,2.49-8.24,5.55-16.33,9.2-24.29,3.64-7.95,6.51-12.88,8.62-14.8Zm22.42-52.89c1.53-.57,2.87-.86,4.02-.86,1.72,0,3.4.48,5.03,1.44,1.63.96,2.44,2.2,2.44,3.74s-1.63,6.09-4.89,13.65c-3.26,7.57-5.56,12.12-6.9,13.65-1.15,1.34-2.59,2.01-4.31,2.01-2.3,0-4.12-.86-5.46-2.59-1.72-2.11-2.59-4.02-2.59-5.75,0-1.15.67-3.74,2.01-7.76,3.83-10.15,7.37-16,10.63-17.53Z"
        fill="url(#uuid-019b9f89-33be-4781-bdc8-3eb26e2d2fe4)" />
    <path
        d="m730.97,173.4c.58-.38,1.19-.57,1.87-.57s1.34.1,2.01.29c.67.19,1.2.29,1.58.29s1.15.96,2.3,2.87c.95,1.72,1.05,4.6.29,8.62-2.49,12.65-8.91,33.82-19.26,63.52-2.69,7.67-8.33,24.62-16.96,50.87-8.82,26.63-15.52,41.29-20.12,43.97-1.92,1.15-3.84,1.34-5.75.58-3.07-1.15-5.18-5.07-6.32-11.78-.96-7.28-5.56-30.75-13.8-70.42-3.07-15.13-5.08-23.18-6.04-24.14-.19-.19-.38-.29-.58-.29-.57,0-2.49,4.41-5.75,13.22-9.77,26.44-17.72,51.16-23.85,74.15-2.87,10.35-6.03,16.48-9.48,18.39-1.15.39-1.92.58-2.3.58-3.07,0-5.46-1.91-7.19-5.75l-1.73-3.45,2.3-8.62c1.72-5.55,2.59-8.81,2.59-9.77,0-.58,1.29-5.03,3.88-13.36,2.59-8.33,5.36-17.34,8.33-27.02,2.97-9.67,4.74-16.05,5.32-19.11,1.15-4.98,2.25-9.39,3.3-13.22,1.05-3.83,1.96-6.9,2.73-9.2.76-2.3,2.06-5.84,3.88-10.63,1.82-4.79,3.49-9.39,5.03-13.8,3.83-11.3,6.42-18.54,7.76-21.7,1.34-3.16,3.06-5.99,5.17-8.48,1.91-2.11,3.93-3.16,6.04-3.16,4.21,0,7.23,2.97,9.05,8.91,1.82,5.94,4.65,21.46,8.48,46.56.38,2.3.81,4.98,1.29,8.05.48,3.07.86,5.61,1.15,7.62.29,2.01.52,3.4.72,4.17.57,2.49.86,5.75.86,9.77,0,2.87.67,7.72,2.01,14.51,1.34,6.8,2.3,10.49,2.87,11.07.38.39,1.05.19,2.01-.57.76-.76,4.6-10.44,11.5-29.03,6.9-18.58,10.73-29.7,11.5-33.34,1.34-4.98,5.84-16.96,13.51-35.93,3.45-8.43,6.71-13.32,9.77-14.66Z"
        fill="url(#uuid-0b36e3b9-0112-4773-aef9-14a15a09892c)" />
    <path
        d="m775.8,174.55c1.91-.38,3.54-.57,4.89-.57,6.32,0,14.95,2.68,25.87,8.05,6.9,3.64,13.51,11.31,19.83,22.99,6.32,12.07,9.49,22.23,9.49,30.47,0,6.71-1.92,15.33-5.75,25.87-8.24,22.99-19.45,41.58-33.63,55.76-18.97,18.97-36.89,28.45-53.75,28.45-.39,0-1-.04-1.87-.14-.86-.09-1.58-.14-2.16-.14-4.79-.58-8.29-2.01-10.49-4.31-2.21-2.3-3.31-5.75-3.31-10.35,0-2.3.1-4.12.29-5.46.76-5.75,4.12-18.78,10.06-39.09,4.4-15.52,6.61-23.76,6.61-24.72,0-2.3,1.63-8.14,4.89-17.53,7.85-22.99,13.12-41.29,15.81-54.9.95-4.41,2.39-7.66,4.31-9.77,1.91-2.11,4.88-3.64,8.91-4.6Zm19.54,23.86c-2.69-1.15-5.65-1.72-8.91-1.72-2.69,0-4.31.39-4.89,1.15-.77.96-2.59,7.47-5.46,19.55-1.15,4.79-3.16,12.17-6.03,22.13-3.83,12.46-7.95,27.5-12.36,45.12-4.41,17.63-6.61,27.88-6.61,30.75,0,2.69,1.72,4.02,5.17,4.02,3.83,0,7.85-1.34,12.07-4.02,14.94-9.2,25.38-19.16,31.33-29.89,9.77-17.82,14.66-35.25,14.66-52.31,0-7.85-1.06-14.18-3.16-18.97-1.15-2.68-3.35-5.65-6.61-8.91-3.26-3.26-6.32-5.55-9.2-6.9Z"
        fill="url(#uuid-a0faa7c7-ac76-471d-8696-13706b478919)" />
    <path
        d="m891.63,172.54c2.3-.58,4.21-.86,5.75-.86,1.34,0,3.74.29,7.19.86,17.05,2.87,27.02,13.22,29.89,31.04.58,4.02.86,9.58.86,16.67s-.29,13.22-.86,18.39c-2.49,21.08-8.15,40.81-16.96,59.21-2.69,5.56-6.85,11.69-12.5,18.39-5.65,6.71-11.06,11.88-16.24,15.52-4.98,3.45-10.83,6.42-17.53,8.91-6.71,2.49-12.36,3.74-16.96,3.74-.96,0-2.21-.19-3.74-.57-7.29-2.49-13.61-8.19-18.97-17.1-5.37-8.91-8.72-19.3-10.06-31.18-.38-4.21-.58-6.7-.58-7.47,0-2.68.67-7.66,2.01-14.94,1.73-10.15,3.21-17.29,4.45-21.41,1.25-4.12,3.69-10.68,7.33-19.69,5.17-12.45,11.11-23.09,17.82-31.9,4.6-5.75,10.82-11.45,18.68-17.1,7.86-5.65,14.66-9.15,20.41-10.49Zm12.07,18.97c-3.45-.76-5.94-1.15-7.47-1.15-4.6,0-9.58,1.44-14.95,4.31-7.67,3.84-15.62,14.23-23.85,31.18-8.24,16.96-13.41,33.58-15.52,49.87-.77,5.37-1.15,11.69-1.15,18.97,0,7.86.48,13.51,1.44,16.96,2.3,7.28,6.03,11.4,11.21,12.36.57.19,1.44.29,2.59.29,5.36,0,10.73-1.44,16.1-4.31,4.4-2.3,9.39-6.85,14.94-13.65,5.56-6.8,9.77-13.55,12.65-20.26,4.6-10.35,9-24.33,13.22-41.96,1.73-7.66,2.59-18.68,2.59-33.05,0-4.21-.19-7.28-.58-9.2-.96-4.98-4.7-8.43-11.21-10.35Z"
        fill="url(#uuid-62160716-74ad-42c4-8266-24f795d588d2)" />
    <path
        d="m973.83,173.69c.76-.38,2.68-.58,5.75-.58,5.94,0,11.5.77,16.67,2.3,8.81,2.68,15.66,7.57,20.55,14.66,4.89,7.09,7.33,15.43,7.33,25,0,5.75-1.06,11.98-3.16,18.68-2.49,8.24-8.43,16.86-17.82,25.87-4.98,4.79-8.53,7.86-10.63,9.2-2.11,1.34-5.56,2.59-10.35,3.74-7.09,1.72-10.63,3.84-10.63,6.32,0,.96,4.69,10.45,14.08,28.45,9.96,19.16,14.94,30.18,14.94,33.05,0,1.34-.48,2.49-1.44,3.45-1.34,1.34-2.97,2.01-4.88,2.01-4.41,0-7.95-1.72-10.63-5.17-.39-.58-4.89-8.38-13.51-23.42-8.62-15.04-13.13-22.85-13.51-23.43-1.15-1.34-2.49-1.96-4.02-1.87-1.54.1-2.59.82-3.16,2.16-.96,1.72-2.4,6.61-4.31,14.66-5.17,19.36-9.1,30.37-11.78,33.05-1.92,1.92-3.64,2.87-5.17,2.87-1.34,0-2.87-.86-4.6-2.59-2.11-2.49-3.16-4.89-3.16-7.19,0-2.87,1.44-9.39,4.31-19.55,2.3-7.47,5.41-18.54,9.34-33.2,3.92-14.66,7.04-25.91,9.34-33.77,4.6-15.33,8.33-28.64,11.21-39.95,3.45-14.18,6.13-22.99,8.05-26.44,1.91-3.45,5.65-6.22,11.21-8.33Zm13.8,19.54c-2.87-.76-4.79-1.15-5.75-1.15s-1.92.48-2.87,1.44c-1.15,1.15-4.5,11.88-10.06,32.19-5.17,19.36-7.76,29.7-7.76,31.04,0,.58.95.86,2.87.86,3.45,0,8.33-1.39,14.66-4.17,6.32-2.78,11.3-5.79,14.95-9.05,3.64-3.26,6.71-7.76,9.2-13.51,2.49-5.75,3.74-11.02,3.74-15.81,0-.38-.05-.91-.14-1.58-.1-.67-.15-1.1-.15-1.29-.77-4.41-2.83-8.33-6.18-11.78-3.35-3.45-7.52-5.84-12.5-7.19Z"
        fill="url(#uuid-3a534953-1402-4a0b-a117-3afadef31216)" />
    <path
        d="m1066.38,175.13c1.15-.19,6.61-.29,16.38-.29h10.63c14.18.19,24.14.86,29.89,2.01,5.75,1.15,9.67,3.26,11.78,6.32.96,1.54.96,3.74,0,6.61-.77,2.11-1.54,6.23-2.3,12.36-.39,4.02-2.35,12.41-5.89,25.15-3.55,12.75-6.37,22.09-8.48,28.02-3.64,9.39-9.39,27.5-17.24,54.32-5.94,20.12-9.1,30.47-9.48,31.04-1.73,3.07-3.36,4.6-4.89,4.6s-3.16-.96-4.89-2.87c-1.72-1.72-2.59-3.93-2.59-6.61,0-4.41,2.49-14.85,7.47-31.33,5.94-20.31,8.91-31.23,8.91-32.76,0-.58-.19-1.05-.58-1.44h-3.16c-8.43,0-15.81.1-22.13.29l-24.43.57-2.01,2.59c-1.54,1.92-2.3,3.36-2.3,4.31,0,.39-2.01,6.61-6.03,18.68-4.02,12.07-7,21.46-8.91,28.17-1.92,7.28-4.02,12.17-6.32,14.66-2.3,2.3-4.22,3.16-5.75,2.59-1.54-.58-2.87-2.01-4.02-4.31-.58-1.15-.86-2.3-.86-3.45,0-2.11,1.24-8.14,3.74-18.11,6.13-26.25,15.23-55.85,27.3-88.81,3.45-9.96,5.84-17.72,7.19-23.28,2.87-11.69,6.51-19.73,10.92-24.14,3.06-2.87,5.75-4.5,8.05-4.89Zm47.71,20.98c-2.11-1.34-12.27-2.01-30.47-2.01-4.6,0-8.24.19-10.92.57-2.49.39-4.12,1.06-4.89,2.01-.77.96-1.34,3.07-1.72,6.32-.19.77-1.34,4.65-3.45,11.64-2.11,7-4.07,13.85-5.89,20.55-1.82,6.71-2.73,10.63-2.73,11.78,0,1.34.58,2.4,1.73,3.16,2.3,1.15,12.36,1.72,30.18,1.72,8.05,0,12.64-.29,13.8-.86,2.87-1.72,4.31-4.6,4.31-8.62,0-.19.29-1.15.86-2.87.58-1.72,1.44-4.41,2.59-8.05,1.15-3.64,2.2-6.99,3.16-10.06,4.02-12.45,6.03-19.73,6.03-21.84,0-1.53-.86-2.68-2.59-3.45Z"
        fill="url(#uuid-8f19274b-f4d5-4eec-8c70-919dd0ea562e)" />
    <path
        d="m1171.28,180.3c1.53-.38,2.49-.57,2.87-.57,1.91,0,3.54,1.15,4.89,3.45.96,1.54,3.11,7.67,6.47,18.4,3.35,10.73,5.7,19.07,7.04,25,1.72,7.86,3.45,11.78,5.17,11.78,2.49,0,9.77-8.43,21.85-25.29,15.13-20.88,24.24-31.33,27.3-31.33,4.98,0,7.47,4.22,7.47,12.65,0,6.13-3.12,22.47-9.34,49-6.23,26.54-12.12,48.43-17.68,65.67-3.07,9.58-4.6,14.76-4.6,15.52,0,.19-1.34,3.74-4.02,10.63-2.68,6.52-4.88,10.35-6.61,11.5-1.92,1.15-3.64,1.72-5.17,1.72-3.64,0-5.46-2.68-5.46-8.05,0-4.41,3.07-17.72,9.2-39.95,7.66-28.93,11.5-47.52,11.5-55.76,0-1.15-.1-1.82-.29-2.01-.19-.19-.39-.29-.58-.29-1.92,0-6.9,5.56-14.95,16.67-4.22,5.94-7.23,9.68-9.05,11.21-1.82,1.54-4.08,2.3-6.76,2.3-2.87,0-4.89-.57-6.03-1.72-1.15-1.15-2.78-5.55-4.89-13.22-2.11-7.66-3.98-14.95-5.61-21.84-1.63-6.9-2.73-10.35-3.3-10.35-.39,0-.96.67-1.73,2.01-1.54,4.02-5.65,19.36-12.36,45.99-6.71,26.63-11.21,45.6-13.51,56.91-1.72,9.39-4.79,15.52-9.2,18.39-2.11,1.15-4.02,1.25-5.75.29-1.34-.76-2.78-2.11-4.31-4.02-1.72-2.3-2.59-4.6-2.59-6.9s1.72-9.39,5.17-21.27c.96-3.06,3.83-13.51,8.62-31.33,2.68-10.54,7.85-28.88,15.52-55.04,7.66-26.16,11.97-40.28,12.93-42.39,1.72-4.02,4.31-6.61,7.76-7.76Z"
        fill="url(#uuid-3aea07bb-e223-4377-85c1-62fc19fc26ed)" />
    <path
        d="m1296.59,175.13c1.15-.19,6.61-.29,16.38-.29h10.63c14.18.19,24.14.86,29.89,2.01,5.75,1.15,9.67,3.26,11.78,6.32.96,1.54.96,3.74,0,6.61-.77,2.11-1.54,6.23-2.3,12.36-.39,4.02-2.35,12.41-5.89,25.15-3.55,12.75-6.37,22.09-8.48,28.02-3.64,9.39-9.39,27.5-17.24,54.32-5.94,20.12-9.1,30.47-9.48,31.04-1.73,3.07-3.36,4.6-4.89,4.6s-3.16-.96-4.89-2.87c-1.72-1.72-2.59-3.93-2.59-6.61,0-4.41,2.49-14.85,7.47-31.33,5.94-20.31,8.91-31.23,8.91-32.76,0-.58-.19-1.05-.58-1.44h-3.16c-8.43,0-15.81.1-22.13.29l-24.43.57-2.01,2.59c-1.54,1.92-2.3,3.36-2.3,4.31,0,.39-2.01,6.61-6.03,18.68-4.02,12.07-7,21.46-8.91,28.17-1.92,7.28-4.02,12.17-6.32,14.66-2.3,2.3-4.22,3.16-5.75,2.59-1.54-.58-2.87-2.01-4.02-4.31-.58-1.15-.86-2.3-.86-3.45,0-2.11,1.24-8.14,3.74-18.11,6.13-26.25,15.23-55.85,27.3-88.81,3.45-9.96,5.84-17.72,7.19-23.28,2.87-11.69,6.51-19.73,10.92-24.14,3.06-2.87,5.75-4.5,8.05-4.89Zm47.71,20.98c-2.11-1.34-12.27-2.01-30.47-2.01-4.6,0-8.24.19-10.92.57-2.49.39-4.12,1.06-4.89,2.01-.77.96-1.34,3.07-1.72,6.32-.19.77-1.34,4.65-3.45,11.64-2.11,7-4.07,13.85-5.89,20.55-1.82,6.71-2.73,10.63-2.73,11.78,0,1.34.58,2.4,1.73,3.16,2.3,1.15,12.36,1.72,30.18,1.72,8.05,0,12.64-.29,13.8-.86,2.87-1.72,4.31-4.6,4.31-8.62,0-.19.29-1.15.86-2.87.58-1.72,1.44-4.41,2.59-8.05,1.15-3.64,2.2-6.99,3.16-10.06,4.02-12.45,6.03-19.73,6.03-21.84,0-1.53-.86-2.68-2.59-3.45Z"
        fill="url(#uuid-26f074cd-1c28-454a-ade0-d8201e7917fa)" />


<!-- INICIO DO mapa -->

        
    <path
        d="m170.02,379.35c-.59-.29-2.75-.43-3.04-.23-.3.2-1.84.39-2.04.5-.2.09-.52.85-.32,1.21.2.36.62.76.62,1.21,0,.22-.03.49-.13.75h6.52c.07-.17-1.02-3.15-1.6-3.45Z"
        fill="none" />
    <path
        d="m157.92.32c-.59-.29-2.75-.43-3.04-.23-.3.2-1.84.39-2.04.5-.2.09-.52.85-.32,1.21.2.36.62.76.62,1.21,0,.22-.03.49-.13.75h6.52c.07-.17-1.02-3.15-1.6-3.45Z"
        fill="none" />
    <path
        d="m223.24,436.78c.45.2.5-.05,1.87,1.77.24.32.54.6.85.85,2.81-6.19,5.43-13.56,2.69-17.59,2.14-5.66,4.7-11.26,3.94-17.45-.18-1.46-.63-2.74-1.27-3.85,1.58-4.25,2.15-9.08,2.64-13.41.26-2.26.5-5,.37-7.71,1.7-4.31,3.7-8.53,5.15-12.93,1.07-3.24,2.53-7.72,2.25-11.67,3.16-5.45,8.19-14.01,8.59-20.38,3.52-6.77,10.35-20.76,7.5-29.02,2.78-7.3,5.77-14.81,7.18-22.32,2.11,3.61,4.61,7.01,7.32,10.16,1.24,1.43,4.05,4.01,4.05,4.01l1.76,1.23s5.57-2.58,7.37-3.45c2.23-1.08,7.12-2.32,7.12-2.32,0,0-3.5,3.66-5.12,5.09-1.58,1.39-4.68,4.29-4.68,4.29l.15,2.57s3.58-.59,5.37-.57c-.73,1.39-1.88,2.5-2.35,4.03-.06.18.13.33.29.33,1.52-.02,2.96-.62,4.47-.68-.31,1.39-2.48,4.32-2.48,4.32,0,0,2.21,3.4,2.86,4.97,1.72,4.13,3.52,8.34,5.64,12.28,4.04,7.54,10.39,13.5,15.37,20.39.5-.43,1.12-.87,1.66-1.22,1.29-2.21,1.92-4.84,2.5-7.28.97-4.11,1.94-8.23,2.88-12.35,1.65-7.24,2.34-14.51,1.35-21.91-.98-7.34-3.56-14.49-6.52-21.24-2.92-6.64-6.72-12.9-11.47-18.39-4.44-5.13-9.63-9.55-15.36-13.15.94-.72,2.03-1.3,2.9-1.77,2.2-1.2,4.61-2.23,7.03-2.86,3.03-.79,6.29-.89,9.17-2.21,2.4-1.09,3.23-4.22,4.91-6.14.3,2.27-.78,4.54-.49,6.83.02.19.26.36.43.21,1.56-1.26,2.43-3.07,3.28-4.83.91-1.9,1.83-4.26,3.75-5.35-.33,3.41-.65,6.85-.07,10.25.03.2.25.34.43.21,5.29-3.65,11.82-4.67,17.78-6.78,2.85-1.01,5.6-2.36,8.42-3.47,2.86-1.13,5.81-2.3,8.19-4.29.17-.14.17-.37-.03-.48-6.38-3.57-13.43-5.79-20.53-7.39-6.88-1.55-13.82-2.31-20.87-1.67-2.67.24-5.35.65-7.97,1.26,1.38-1.34,2.96-2.5,4.56-3.59,1.48-1.01,3-1.96,4.46-2.98,1.61-1.12,3.07-2.44,4.89-3.23.14-.06.22-.2.17-.35-.68-2.3-2.23-4.26-2.86-6.58,2.6.7,4.67,2.61,7.16,3.6.15.06.3.02.37-.13,1.74-3.21,4.36-5.66,7.08-8.03,2.56-2.24,4.95-5.02,7.9-6.76.19-.11.14-.39-.03-.48-7.02-4-14.7-7-22.87-7.24-6.61-.19-12.88,2.26-18.32,5.88-6.37,4.23-12.12,9.83-16.93,15.75-2.11,2.59-3.98,5.37-5.6,8.29-1.17-2.25-2.47-4.45-3.82-6.56-3.94-6.15-8.54-12.02-13.72-17.16-6.1-6.06-13.55-9.93-21.3-13.48-.09-.04-.18-.08-.26-.12,4.34.03,8.66-.41,12.92-1.22,1.93-.37,3.83-.84,5.75-1.25,1.42-.3,2.76-.69,3.92-1.58,1.39-1.06,2.29-2.75,3.18-4.21,1.28-2.11,2.51-4.25,4.16-6.09,2.17,2.78,3.94,5.78,4.13,9.4.01.21.26.33.43.21,3.04-1.95,4.31-5.73,7.38-7.61.51,1.68.3,3.46.24,5.2,0,.16.16.26.3.26,4.55-.03,8.94-1.32,13.29-2.53,2.04-.57,4.09-1.08,6.12-1.66,2.32-.66,5.01-1.44,7.36-.53.18.07.34-.05.39-.19.04,0,.09.01.13.02.24.02.42-.21.29-.43-3.26-5.47-9.51-9.05-14.83-12.24-6.34-3.81-13.02-7.05-20.52-7.41-13.92-.67-27.38,5.73-39,12.75-2.3,1.39-4.55,2.85-6.79,4.34,2.05-4.37,4.81-8.16,8.19-11.63,1.7-1.74,3.46-3.4,5.44-4.82,1.77-1.26,3.94-1.8,5.6-3.23.1-.09.08-.24.03-.34-.78-1.42-2.23-2.34-2.9-3.81,2.32-.08,4.59.56,6.9.73.21.02.32-.36.32-.36,0,0-1.82-3.03-2.79-4.33-.6-.8-1.61-4.95-1.61-4.95,0,0,3.88.96,5.2,1.66,1.48.77,2.93,1.65,4.28,2.64.12.09.4-.02.4-.02,0,0,9.27-11.58,15.87-14.77,2.7-1.3,5.6-2.15,8.51-2.79,2.73-.6,5.76-1.07,8.1-2.72.15-.1.17-.32.03-.44-2.8-2.5-6.52-3.69-10.1-4.54-3.94-.94-8-1.36-12.04-1.59-3.8-.22-7.77-.74-11.56-.2-4.16.6-6.4,3.67-8.9,6.69-.62-1.77-.36-3.81-.39-5.64,0-.14-.15-.28-.3-.26-9.76,1.42-18.4,6.19-25.16,13.32-1.33,1.41-2.58,2.89-3.75,4.43-3.62,4.76-6.47,10.1-8.74,15.65-4.3-5.86-9.34-11.2-14.64-16.04-5.25-4.8-10.94-9.41-17.08-13.02-6.96-4.1-14.84-6.03-22.84-6.6-3.46-.25-6.92-.11-10.35.45-3.15.51-6.42,1.4-9.03,3.3-.13.09-.16.25-.08.39.54.91,1.33,1.42,2.26,1.88,1.39.69,2.72,1.25,4.01,2.14,2.5,1.72,4.74,3.68,7.37,5.22,2.26,1.32,6.47,4.72,6.47,4.72,0,0,4.7-2.23,6.47-3.02,0,2.34-1.81,4.44-2.78,6.46-.09.18.03.34.2.4,4.33,1.39,8.82-.69,13.15-1.12-.35,1.93-1.86,3.48-2.9,5.08-.91,1.4-1.54,2.87-1.59,4.56-.05,1.86.7,3.84,1.31,5.56.77,2.12,1.9,4.09,3.15,5.96.44.66.91,1.31,1.38,1.96-2.03-.64-4.08-1.22-6.13-1.69-6.29-1.45-12.39-.57-18.73-.33-.24,0-.35.33-.17.49,2.47,2.17,4.91,4.36,7.44,6.46-3.13-.46-6.16-1.42-9.22-2.24-2.98-.79-5.72-1.06-8.76-.44-5.99,1.24-11.56,5.13-16.09,9.07-5.12,4.46-9.59,9.7-13.27,15.4-1.79,2.77-3.54,5.89-4.7,9.15,0,0,0,0,0,.01.03.06.06.13.09.2.04.09.07.17.1.24.02.05.04.09.05.13t0,.02c.02.09.05.16.06.24.14.79.39,1.57.2,2.07-.17.43-1.08,2.22-.59,3.86,3.9-2.19,8-3.89,12.35-4.94,4.66-1.12,9.33-1.21,14.08-1.4,2.11-.08,4.22-.33,6.19-1.1,1.59-.62,4.1-3.01,4.1-3.01,0,0,3.9-4.96,5.57-7.64-1.23,3.11-2.05,9.62-2.05,9.62,0,0,.17.21.29.19,2.98-.54,8.99-2.04,8.99-2.04,0,0,3.23-4.3,4.88-6.43-.76,1.86-1.05,5.73-1.05,5.73,0,0,.22.11.36.18-.36-.18,5.04-4.03,5.04-4.03l.16,5.02s1.07.08,1.5-.01c1.21-.26,2.39-.72,3.55-1.15.93-.34,1.85-.71,2.79-1.02,1.71-.57,3.73-.6,5.52-.66.4-.01.79-.01,1.19-.01-.53.19-1.06.38-1.58.57-3.83,1.38-7.62,2.85-11.31,4.58-7.26,3.4-13.97,7.78-19.49,13.62-3.94,4.16-7.22,8.87-10.14,13.8,1.26.46,2.35.66,2.65.72.14.02.39.05.7.07.1,0,.21.02.33.04.09,0,.18.02.27.04.07,0,.15.02.23.04.07,0,.14.02.2.04.1.02.2.04.3.07.1.02.21.06.31.09.19.06.37.14.52.25.04.02.07.04.1.06.03.03.06.06.09.09.03.02.06.06.09.09.69.79,1.78,1.53,2.36,2.41.6.89,2.07,2.17,3.1,1.92,1.04-.24.54-.64,2.46-.64s4.13.5,4.72.67c.59.17,2.26.22,3.09.46.43.13,1.05.46,1.57.77.06.04.13.08.18.12.41.26.72.5.76.58.1.2,1.18,1.23,1.33,2.12.15.89.3,2.46.15,3.15-.09.41.19,1.62.54,2.78,1.74-3.42,5.95-11.5,9.09-15.59-1.24,4.91-3.15,14.78-3.15,14.78l.43.21s5.3-6.45,7.75-9.81c-.75,2.42-.61,7.48-.61,7.48,0,0,.16.2.28.19,8.09-.65,15-7.21,20.38-12.72,2.26-2.31,4.4-4.74,6.5-7.21.02,2.4.26,4.77.95,7.07-.16.26-.28.55-.29.93-.15,8.1-4.45,15.62-3.49,23.85.1.88.35,1.72.67,2.54-4.27,6.62-9.69,19.42-7.37,27.52.21.29.36.52.36.6,0,.11-.04.47-.05.91-.02.69.05,1.61.44,2.18.64.94,1.67,1.63,1.72,2.27.06.64-.79,1.13-1.13,1.42-.35.3-.74.24-.98,1.77-.25,1.53-.69,3.35-.74,3.65-.05.29.15.14.39,1.28.24,1.13.44,2.71,0,2.85-.44.15-1.13-.83-1.57,0-.44.84-2.6,5.51-2.85,6.05-.25.54-.79,1.28-.2,1.87.6.59,1.53.68,2.22,1.42.68.74.09,1.48.09,1.48,0,0-2.6.44-2.71.73-.09.3-.19,3.35.69,4.57.88,1.24,1.57,2.12,2.01,3.1.44.98,1.04,2.61.69,4.58-.35,1.97-1.13,4.77-1.13,4.77,0,0-.79.59-.44,1.32.35.74.79.6.79,1.43s-.05,2.5-.69,2.76c-.64.24-.79,1.23.1,1.28.88.05,1.47-.05,2.41,0,.94.05.89-.91,1.72.02.83.92,1.92,1.71,3.15,1.71.93,0,3.97.2,6.03.14,1.06-6.3,1.24-12.82,1.21-17.43,4.02-3.51,5.6-10.32,6.23-17.05,1.86-2.86,3.11-6.09,5.07-8.88-.54,1.86-1.07,3.72-1.51,5.6-.45,1.94-.75,6.32-.75,6.32l5.24.34.26.02s3.67-4.68,4.6-7.18c.99-2.65,2.9-8.04,2.9-8.04,0,0-.39,4.31-.56,6.26-.14,1.69.85,5.56.85,5.56,0,0,4.07.05,5.56-.54,3.31-1.3,6.78-2.14,10.09-3.45,4.15-1.65,7.96-4.01,11.59-6.63-2.25,7.84-2.03,18.34-3.82,23.72-.9,1.48-1.62,3.01-2.14,4.26-2.6,6.22-8.22,14.48-7.46,21.49-1.56,1.53-2.87,3.23-3.78,4.72-1.69,2.8-4.53,7.41-5.94,11.71.13.23.25.43.3.56.2.44.35,1.68.54,2.36.2.69,1.03,2.61,0,4.24-1.03,1.62-1.23,3.35-1.38,4.68-.14,1.32-.64,3.29-.88,3.59-.25.29-1.04,2.06-1.09,2.21-.05.15-.49.98.94.74,1.42-.24,1.68-.64,2.56-.64s2.95.09,3.39.34c.45.24.98.24,1.23,1.09.24.83,1.62,4.67,1.62,4.67,0,0,1.06,1.62,1.25,3.52.03.3.05.61.02.91-.14,2.26.1,4.33-.39,6.15-.49,1.83-1.27,3.01-1.57,3.15-.03.02-.07.04-.13.06-.09.04-.2.09-.34.17-.09.04-.19.09-.3.14-.06.03-.11.06-.17.09-.08.04-.16.08-.24.12-.72.38-1.61.88-2.12,1.35-.94.83-4.33,1.53-4.72,1.72-.39.2-2.9,1.47-5.9,3.59-3,2.12-5.71,3.94-7.47,5.56-.11.1-.17.17-.25.26-.11.46-.23.91-.35,1.37.08.09.13.19,0,.35-.03.04-.08.06-.11.09-.11.4-.19.81-.31,1.2-.07.23-.06.44-.05.64-.4.64-.75,1.31-1.02,2.01-1.19,3.05-1.9,6.34-2.33,9.58-.27,2-.03,8.31-1.91,9.44-.61.36-.84.91-.85,1.45-.12.16-.21.33-.33.49,1.04,1.2,2.23,2.53,2.65,3.2.64,1.03.83,2.41,1.33,3,.49.59,2.41.5,2.65-.69.24-1.18.39-2.41,1.33-1.83.93.6,1.53,1.63,3.1,3.15,1.57,1.53,1.47,1.53,3.24,2.31,1.77.79,1.92.3,3,1.28,1.09.98,3.1,1.57,3.54,1.77Zm14.76-188.68c-3.93.88-7.82,2.16-11.7,3.25-3.89,1.1-7.48,2.76-11.12,4.46-.86.4-1.7.83-2.55,1.24-.62.3-1.24.59-1.86.9.34-3.64.51-7.05.82-9.6,0-.05-.01-.08-.01-.13.4-.54.74-1.14,1.05-1.76,3.71-7.42,1.87-20.48,1.81-26.57,0-.03-.02-.05-.02-.09,1.07-1.7,1.78-3.7,2.24-5.86.73.55,1.43,1.15,2.17,1.68,2.03,1.48,3.75.93,5.9.04,2.96-1.22,9.38-2.82,9.38-2.82,0,0-2.03,3.52-3.39,4.83-1.39,1.34-4.15,3.92-3.88,4.32.27.4.07.4.27.4,2.61.01,7.15-2.25,7.15-2.25,0,0-4.54,5.81-2.98,9.47,1.28,2.98,3.95,5.53,6.27,7.72,3.43,3.25,7.25,6.23,11.05,9.04.04.03.08.05.12.08-3.59.31-7.18.83-10.7,1.62Z"
        fill="none" />
    <path
        d="m207.16,400.17c-.74.64-1.92,2.02-2.75,2.71-.84.68-5.76,6.49-7.43,8.12-.66.63-1.92,2.01-3.26,3.5.22,1.75.43,3.5.65,5.23.53-.22,1.21-.26,2.06.17,1.72.88,3.69,1.67,4.57,2.95.31.45.83,1.07,1.39,1.72.11-.16.21-.33.33-.49.01-.55.24-1.09.85-1.45,1.88-1.13,1.65-7.44,1.91-9.44.43-3.24,1.14-6.53,2.33-9.58.27-.7.62-1.36,1.02-2.01-.01-.2-.01-.41.05-.64.12-.4.2-.81.31-1.2-.48.34-1.36-.19-2.04.4Z"
        fill="url(#uuid-d3c80b6f-cbb4-48d2-9b47-1a388ba08b1c)" />
    <path
        d="m194.16,244.85c-.32-.81-.57-1.65-.67-2.54-.96-8.23,3.34-15.75,3.49-23.85,0-.38.13-.67.29-.93-.7-2.3-.94-4.67-.95-7.07-2.1,2.47-4.24,4.9-6.5,7.21-5.38,5.5-12.29,12.06-20.38,12.72-.12,0-.28-.19-.28-.19,0,0-.14-5.06.61-7.48-2.45,3.37-7.75,9.81-7.75,9.81l-.43-.21s1.9-9.87,3.15-14.78c-3.14,4.09-7.36,12.17-9.09,15.59.23.78.49,1.55.69,2.04.5,1.23.79,2.41.74,4.03-.06,1.62-.39,2.06-1.18,2.06s-1.97-.05-1.97.79,2.95,1.78,3.39,2.76c.44.99.83,2.76.83,4.58s.1,3.5.25,4.23c.14.74,3.54,1.63,4.18,1.68.64.05,10.87.64,11.9.64h3.49s1.38-1.97,1.72-.98c.35.98.68,1.48.14,2.56-.53,1.08-1.27,1.57-1.57,2.07-.29.49.1,3.49.5,4.72.39,1.23-1.08,1.32,1.57,3.39,1.33,1.03,2.37,1.6,3.12,1.93.76.33,1.23.43,1.4.53.25.14,1.37,1.42,1.95,2.21-2.33-8.1,3.1-20.9,7.37-27.52Z"
        fill="url(#uuid-bfed67a9-2e8a-4dca-9a95-6e7d8d9f226a)" />
    <path
        d="m170.51,185.19c.53-.19,1.06-.38,1.58-.57-.4,0-.79,0-1.19.01-1.79.06-3.81.09-5.52.66-.94.31-1.86.68-2.79,1.02-1.16.42-2.34.88-3.55,1.15-.43.09-1.5,0-1.5,0l-.16-5.02s-5.39,3.86-5.04,4.03c-.13-.06-.36-.18-.36-.18,0,0,.29-3.87,1.05-5.73-1.65,2.13-4.88,6.43-4.88,6.43,0,0-6.01,1.5-8.99,2.04-.11.02-.29-.19-.29-.19,0,0,.82-6.52,2.05-9.62-1.67,2.68-5.57,7.64-5.57,7.64,0,0-2.51,2.39-4.1,3.01-1.98.77-4.09,1.02-6.19,1.1-4.75.19-9.42.28-14.08,1.4-4.36,1.05-8.46,2.75-12.35,4.94.06.21.14.41.25.61.98,1.77.79,2.07,2.95,5.37,2.16,3.29,5.99,5.26,7.47,5.95,1.48.68,2.9,1.03,3.45.98.54-.05,1.67-.24,2.36-.24s2.01,0,3.24.83c1.23.83,2.85,1.77,3.05,1.77.19,0,1.86-.69,1.86-.69,0,0,1.33.64,1.53,1.28.2.64.34,1.43,2.36,2.8.77.53,1.62.92,2.41,1.2,2.93-4.92,6.21-9.63,10.14-13.8,5.53-5.84,12.23-10.22,19.49-13.62,3.69-1.73,7.48-3.19,11.31-4.58Z"
        fill="url(#uuid-361e2c1a-78ef-4c70-8f47-4b1da3b218ef)" />
    <path
        d="m234.47,330.91c-.77-7.01,4.86-15.27,7.46-21.49.52-1.25,1.24-2.78,2.14-4.26,1.79-5.38,1.57-15.88,3.82-23.72-3.63,2.62-7.44,4.98-11.59,6.63-3.31,1.32-6.78,2.15-10.09,3.45-1.5.59-5.56.54-5.56.54,0,0-1-3.87-.85-5.56.17-1.95.56-6.26.56-6.26,0,0-1.91,5.39-2.9,8.04-.93,2.5-4.6,7.18-4.6,7.18l-.26-.02-5.24-.34s.3-4.38.75-6.32c.44-1.88.97-3.74,1.51-5.6-1.96,2.79-3.21,6.02-5.07,8.88-.62,6.73-2.2,13.54-6.23,17.05.03,4.61-.16,11.13-1.21,17.43.66-.02,1.23-.06,1.59-.14,1.48-.35,1.63-1.82,2.22-1.82s1.23.35,1.77,1.08c.54.74,2.12,1.24,2.8,1.24s.59-.6,1.68,0c1.08.58,2.5,1.37,2.65,2.16.15.79.39,1.87.5,2.22.09.35.83.39.68,1.57s-.64,1.67-.59,2.8.74,1.57,1.09,2.41c.34.83.24,1.53.24,2.07s-.59,1.42-.1,2.41c.42.82.84,1.48.98,2.1.03.12.06.24.06.36,0,.73-.35,1.42,1.47,1.72,1.82.3,4.13.69,4.57.39.44-.29,1.87-.98,2.27-1.18s2.85-.29,2.9-.09c.04.14.53.92.88,1.51,1.41-4.3,4.25-8.91,5.94-11.71.91-1.5,2.22-3.19,3.78-4.72Z"
        fill="url(#uuid-f270c74c-f4a1-4d60-8dc2-72d019d14d7e)" />
    <path
        d="m291.13,317.06c-.66-1.57-2.86-4.97-2.86-4.97,0,0,2.17-2.93,2.48-4.32-1.51.05-2.95.65-4.47.68-.16,0-.35-.15-.29-.33.48-1.53,1.62-2.64,2.35-4.03-1.79-.02-5.37.57-5.37.57l-.15-2.57s3.1-2.9,4.68-4.29c1.62-1.43,5.12-5.09,5.12-5.09,0,0-4.89,1.24-7.12,2.32-1.81.87-7.37,3.45-7.37,3.45l-1.76-1.23s-2.81-2.57-4.05-4.01c-2.71-3.15-5.21-6.55-7.32-10.16-1.42,7.52-4.41,15.02-7.18,22.32,2.85,8.26-3.98,22.25-7.5,29.02-.39,6.37-5.43,14.92-8.59,20.38.28,3.94-1.18,8.42-2.25,11.67-1.46,4.41-3.46,8.62-5.15,12.94.14,2.71-.11,5.45-.36,7.71-.49,4.33-1.06,9.16-2.64,13.41.64,1.11,1.09,2.39,1.27,3.85.76,6.18-1.8,11.78-3.94,17.45,2.74,4.03.12,11.4-2.69,17.59,1.43,1.18,3.28,1.66,3.28,1.66,0,0,1.13,1.08,2.11,2.06.99.98,2.17,2.06,2.17,2.91s.64,2.06,1.42,2.46c.79.39,2.56.59,3.04,1.18.5.59,1.67,1.77,1.09,2.61-.59.84-1.87,1.57-2.27,2.07-.39.5-1.38.44-1.86,1.57-.5,1.13-.74,1.47-.5,3.35.17,1.27-.14,3.41,1.52,3.89,1.65.48,3.78-2.59,4.94-3.5.75-.59,1.64-.72,2.3-1.4,1.62-1.68,2.61-4.4,3.34-6.57.53-1.6.93-3.35,2.11-4.56.67-.68,1.53-1.13,2.27-1.71,1.4-1.09,1.77-2.89,3.09-3.89,1.38-1.05,3.01-1.94,4.52-2.77,2.16-1.18,7.13-5.31,7.96-6.74.84-1.43,7.38-13.2,9-16.39.33-.65.84-1.44,1.47-2.29.1-.14.21-.29.32-.44.29-.38.59-.77.91-1.17,2.14-2.65,4.87-5.52,6.44-6.81.11-.09.21-.18.31-.25.09-.08.19-.15.28-.2,2.02-1.39,5.56-4.43,5.76-5.86.2-1.43.59-6.84,1.13-8.12.53-1.28.73-2.31.73-2.31,0,0-1.23-1.92-1.42-2.36-.2-.45-.44-2.56-.44-2.91s-.05-3.35,0-4.13c.05-.79,2.46-4.48,2.46-4.48,0,0-.44-.49-1.08-1.18-.42-.46-.98-1.02-1.24-1.62-.14-.31-.2-.62-.13-.94.2-.94,1.42-2.95,2.46-3.74.71-.54,2.99-1.95,4.52-3.42.73-.7,1.29-1.42,1.43-2.05.45-1.97,1.18-3.54,1.18-3.54,0,0,7.38-4.38,8.02-4.91.64-.54,1.57-.6,1.77-.79.2-.2.39-.74.98-1.57.16-.22.44-.5.78-.79-4.98-6.88-11.33-12.85-15.37-20.39-2.11-3.94-3.92-8.16-5.64-12.28Z"
        fill="url(#uuid-72f9dc8b-5254-4423-9a33-4880be12015d)" />
    <path
        d="m450.31,151.47c-.25-1.97-.2-4.47-.79-7.18-.25-1.14-.75-2.99-1.28-4.88-.72-2.58-1.53-5.24-1.86-6.29-.59-1.82-1.72-6.25-2.31-7.13-.59-.89-2.66-3.74-3.59-3.94-.94-.2-3.64-.64-5.41-.3-1.77.35-2.21.69-4.28.39-2.06-.29-3.34,0-4.03-.73-.69-.74-2.16-.79-2.85-1.09-.27-.12-.72-.38-1.19-.71-.75-.53-1.6-1.2-1.96-1.65-.25-.31-.7-.76-1.19-1.2-.19-.18-.38-.36-.57-.54-.11-.1-.23-.21-.33-.31-.35-.33-.65-.63-.87-.86-.68-.73-2.21-1.82-3.44-2.36-1.23-.54-2.07-.98-2.75-1.77-.68-.79-3.25-3.64-3.25-3.64,0,0-.93-1.33-1.27-1.43-.35-.09-2.01-.88-2.51-1.18-.49-.29-3.78-2.95-6.05-4.38-2.26-1.42-6.29-4.62-7.17-4.68-.88-.05-5.16-.39-7.52-.19-.23.02-.49.05-.76.09-.13.02-.28.04-.43.06-.3.05-.61.09-.94.15-.33.06-.67.12-1.01.17-.21.04-.42.08-.64.11-.42.08-.83.15-1.25.22-.26.05-.5.09-.76.13-.51.08-1.02.16-1.48.21-.15.02-.31.04-.45.05-.1,0-.2.02-.3.02-.13.02-.24.02-.36.02-.38.02-.71.02-.96-.02-.17-.02-.35-.06-.55-.09-.21-.04-.44-.08-.67-.12-.02,0-.05,0-.07-.02-.05,0-.1-.02-.16-.03,0,0-.02,0-.03,0-.2-.04-.39-.09-.59-.13-.51-.12-1.02-.24-1.46-.36-.09-.02-.17-.05-.26-.07-.04,0-.07-.02-.1-.02-.1-.03-.2-.06-.29-.09-.09-.03-.18-.06-.26-.09-.27-.09-.46-.16-.52-.21-.29-.25-2.65-1.28-3.54-1.39-.1,0-.25-.03-.44-.05-.02,0-.03,0-.05,0-.07,0-.16-.02-.24-.03-.15-.02-.32-.03-.49-.06-.06,0-.13,0-.2-.02-.13-.02-.26-.03-.39-.05-.02,0-.03,0-.05,0-.08,0-.16-.02-.24-.03-.15-.02-.31-.03-.46-.06-.44-.06-.89-.12-1.3-.17-.06,0-.13-.02-.19-.02-.25-.03-.48-.06-.68-.09-.11,0-.21-.02-.31-.04-.03,0-.06,0-.1,0-.02,0-.03,0-.04,0-.09,0-.16-.02-.21-.02-.03,0-.05,0-.08,0-.05,0-.07,0-.09,0-.2,0-2.56-.89-2.56-.89,0,0-4.13-2.26-5.16-2.65-1.04-.39-2.17-1.33-3.4-.94-1.23.39-1.53.35-2.31,1.13-.79.79-2.65,1.67-2.65,1.67,0,0-.44-.93-.64-.98-.2-.05-1.97.64-1.97.64l-.39.09s-1.04-.59-.98-.94c.05-.34.09-1.43.15-1.76.05-.35-2.31-5.27-3.2-6.5-.88-1.23-3.39-4.82-4.03-4.87-.64-.05-1.97.64-2.31,1.13-.35.49-.94.98-1.28.69-.34-.29-1.47-2.36-1.72-2.51-.25-.14-2.8-1.67-3.25-1.82,0,0-.02,0-.06-.02-.02,0-.06-.02-.09-.03-.32-.1-1.09-.35-2.17-.68-.13-.04-.27-.09-.42-.13-.14-.05-.29-.09-.44-.14-.3-.09-.62-.19-.95-.29-.13-.04-.24-.08-.37-.12-.21-.06-.44-.13-.67-.2-.02,0-.05-.02-.07-.02-.24-.08-.5-.16-.76-.24-1.21-.38-2.53-.78-3.86-1.17-.2-.05-.42-.12-.62-.18-.6-.18-1.19-.35-1.78-.53-.28-.08-.56-.17-.83-.24-.36-.1-.71-.2-1.05-.3-.59-.17-1.15-.32-1.68-.47-.32-.09-.64-.17-.94-.25-.15-.04-.3-.08-.44-.12-.2-.05-.4-.1-.58-.15-.42-.1-.8-.2-1.14-.27-.12-.03-.24-.06-.35-.07-.26-.06-.48-.09-.67-.13-3.4-.5-7.03-1.13-7.47-.83-.44.29-3.01-.05-3.19-.1-.2-.05-2.22-.69-1.83-1.23.39-.54,1.04-1.38,1.04-1.38,0,0-.99-1.57-1.48-1.57s-2.16-.15-2.95.05c-.79.2-2.6.2-2.6.2,0,0-1.57-.35-2.07-1.38-.49-1.03-2.26-3.2-2.45-3.54-.2-.35-2.42-1.62-2.6-1.62h-1.72s-1.92-.05-2.07-.2c-.42-.44-.24-1.35-.24-1.87-.02-.75-.2-1.01-.39-1.66-.04-.15-.07-.29-.09-.43-.13-1.24.76-2.07,1.02-3.33,0-.03.79-3.75.64-4.92-.15-1.18-.44-3.54-.89-3.94-.44-.39-2.7-1.38-2.9-1.43-.2-.05-.69.69-1.13-.94-.44-1.63-.54-3.05-.94-3.35-.39-.3-1.52-.74-1.87-.74s-1.53.09-1.77-.09c-.24-.2-.54-1.48-.79-2.22-.24-.74-1.28-1.62-1.28-2.31s-1.47-3.59-1.71-5.85c-.25-2.27-.69-4.33-.69-5.17s.05-1.97.05-2.61-.29-2.26-.29-2.26l-.41-1.13-3.81-2.62s-1.05.13-1.18,1.31c-.13,1.18-1.31,4.07-2.23,4.86-.92.79-5.64,7.35-6.43,10.5-.79,3.15-2.88,5.38-3.8,6.43-.92,1.05-4.98,2.36-5.37,2.36s-3.15-.79-3.15-.79c0,0-3.93-.39-4.59-.13-.65.27-4.59.79-4.98.92-.39.13-4.85-.79-4.85-.79,0,0-.72-.75-1.5-1.51h0c-.83-.82-1.7-1.64-1.9-1.64-.39,0-3.15-.39-4.33.79-.34.34-.65.58-.94.77-.73.46-1.31.51-1.68.42-.53-.13-4.07-1.57-4.07-1.57,0,0-1.97,2.5-1.31,2.89.66.39,1.71,1.83,1.71,2.23,0,0,.42,2.46-.76,2.92-1.18.46-2.95-.56-4.03-.89-1.09-.32-3.81-.72-4.33-.39-.53.33-1.31.72-2.49.63-1.18-.1-3.08-.92-3.18-.92-.1,0-.56-.46-1.77.39-1.21.85-2.39,2.69-2.92,2.85-.53.17-2.72-.49-3.64,0-.91.5-.26,2.07-1.47,2.2-1.21.13-2.72-1.21-3.21-1.02-.5.2-1.41,1.84-1.71,2.4-.3.55-3.45,1.31-3.63,1.31-.08,0-.46-.07-.95-.17-.8-.16-1.85-.38-2.04-.43-.29-.06-2.36-.95-2.72-1.18-.35-.23-2.36-1.67-2.65-2.16-.29-.49-2.13-2.09-2.33-2.49-.2-.39-1.18-2.5-1.18-2.5,0,0,.62-1.68.26-2.59-.35-.92-2.45-2.13-2.68-2.76-.23-.63-.36-2.95-.33-3.18.03-.24.36-3.98.59-5.02s1.25-2.06,1.38-2.76c.13-.69-.17-1.83-.17-2.03s.27-1.94.27-1.94c0,0,3.11-1.65,3.15-2.5.03-.85-1.97-2.3-2.13-2.85-.16-.56-.42-1.68-.42-2.2s0-1.02-.27-1.15c-.26-.13-4.13-.95-4.13-.95,0,0,.03-1.09.46-1.77.42-.69,1.24-2.59,1.31-2.76,0,0,0,0,0,0h-6.52c-.1.28-.27.56-.56.79-.57.46-3.45,2.26-3.58,2.76-.13.49.42,1.35-.62,1.51-1.05.16-3.12.19-3.48.43-.36.23-2.49.76-2.82,1.34-.33.6-1.35,1.28-1.9,1.45-.55.17-2.56.79-3.12,1.08-.55.3-2.49.2-2.49.2,0,0-2.49-.56-2.86-.43-.35.13-3.05,1.45-2.98,1.94.06.49.23,3.38-.2,3.61-.42.24-1.08-.32-1.21-.26-.13.06-.72.39-.89.65-.16.27-.85.56-.85.56,0,0-.62-.59-.72-1.08-.09-.5-2.06-2.27-2.23-2.43-.17-.17-.85-.98-1.27-.82-.43.17-1.84,1.15-2.13,1.25-.3.09-1.68-.2-1.87-.27-.2-.06-2.36-.91-2.62-.79-.26.13-1.24.69-1.41.59-.17-.09-1.61-1.61-1.64-1.77-.04-.17.03-.76-1.02-.76s-2.39-.16-3.27-.46c-.89-.3-3.18-1.87-3.18-1.87,0,0-.76.79.62,2.2,1.38,1.41,3.08,2.62,4.19,3.54,1.12.91,3.05,2.23,3.12,2.56.06.32.13.88-.13,1.38-.26.49-.82.65-.82,1.05s.06,1.57.06,1.71c0,.13.03,1.9.76,2.56.72.65,1.77,1.38,1.94,2.09.17.72.26,1.57.06,2.04-.2.46-.23,1.64-.06,1.87.02.02.03.05.06.08,0,.02.02.04.04.06.02.04.06.09.09.13.03.04.06.08.09.12h0c.06.08.13.16.23.24.02.02.05.04.08.06.03.02.06.04.09.06.02,0,.02.02.04.02.05.03.1.06.16.09.02,0,.03.02.05.02.06.02.12.05.19.07,0,0,.02,0,.03,0,.11.03.24.06.37.08,1.08.17,2.75.46,3.11.13.36-.32,1.87-.62,1.97-.53.1.1.92.69.83,1.12-.06.26-.13,1.2-.31,1.97-.11.5-.27.91-.48,1.02-.56.27-2,.62-2.75,1.31-.76.69-1.57.85-2.07.65-.49-.2-2-.52-2.09-.2-.1.33.09,2.99-.2,3.68-.29.69-2.19,1.97-2.55,2.42-.36.46-.79,1.22-1.12,1.18-.33-.03-.79-.82-.79-.82,0,0-.53-.26-.98.26-.46.53-2.07,2.24-2.36,2.27-.3.03-1.23-.56-1.65-.39-.42.17-1.4.69-1.83,1.15-.43.46-1.35,1.08-1.5,1.35-.17.26-.24.95-.43,1.28-.2.33-1.14.2-1.53.56-.39.36-.76,1.41-.86,1.74-.09.32-1.21,1.02-1.21,1.02,0,0-1.24.06-1.24-.62s1.05-1.87,1.05-1.87c0,0-.2-.49-.36-.68-.17-.2-1.38-1.18-1.47-1.18-.1,0-1.54.33-1.74.49-.2.17-1.24,1.61-1.77,2.17-.53.56-3.61,1.18-4,.66-.39-.53-2.03-1.71-2.49-2.3-.46-.59-1.97-2.56-2.53-2.65-.56-.1-2.3-.33-2.42-.33-.13,0-1.09.2-1.28-.27-.2-.46-.43-3.08-.43-3.47s-.09-3.09-.3-3.38c-.19-.3-1.76-.53-1.97-1.09-.19-.56-.46-2.88-.46-2.88,0,0-.42-.89-.79-.76-.36.13-1.44.55-1.7,1.15-.27.58-.95,1.41-1.18,1.41s-1.64.06-1.84.35c-.2.3-.59.95-.82,1.09s-1.15.23-1.57-.06c-.42-.3-1.57-1.38-1.94-1.09-.36.3-.85.42-.62.85.23.43.98,1.05,1.08,1.28.1.23-.58.62-.68.62s-12.06-.36-12.59-.29c-.53.06-3.08-.27-3.41-.27s-2.75,1.25-2.75,2.53-.13,3.09.26,3.71c.39.62.92,1.47,1.64,1.68.72.19,2.6-.1,3.22.09s2.53.88,2.75,1.18c.23.3.39,1.44.39,1.44,0,0,.5,3.92-.42,3.58-.94-.35-2.57-.79-2.75-.84-.2-.05-2.61.45-2.61.45,0,0-1.53.19-1.86.41-.35.23-2.81.91-2.86,1.26-.05.35-.09,6.74.64,7.87.73,1.13.79,1.38,2.31,2.51,1.53,1.13,3.3,2.56,3.3,3.39s-.88,2.06.15,3.1c1.03,1.03,1.86,1.97,1.52,3.29-.34,1.33-1.42,10.68-1.82,13.14-.39,2.46-3.19,15.35-3.54,16.88-.34,1.53-1.18,6.3-2.21,6.69-1.03.39-3.1.64-3.54,0-.44-.64-.98-1.82-1.23-1.97-.25-.15-2.27.2-3.01.54-.73.35-1.86,1.38-1.97,1.82-.09.44-3.39.69-4.47.94-1.09.24-3.05,1.18-4.04,1.18s-2.36-.5-2.95,0c-.59.49-1.97,2.02-2.65,2.5-.69.5-5.85,3.5-6.49,3.94-.64.45-2.16.99-2.31,1.83-.15.83-1.03,2.61-1.03,3.83s-.35,2.51-.69,2.81c-.34.29-2.12,2.16-2.41,3.29-.29,1.13,1.92,3.89,1.57,4.43-.35.54-2.75,1.77-3.89,2.36-1.13.59-3.69,2.7-3.69,4.13s.05,1.97,0,2.5c-.05.54.45.89-.49,1.72-.94.84-1.13,1.33-1.13,2.16s1.18,2.46,1.83,2.91c.64.44.79,1.47.79,2.12s-.1,1.23.34,2.11c.45.89,1.09,2.46,1.42,3.06.35.59,1.83,1.33,2.17,1.82.34.5,2.26,2.12,3.24,3.54.98,1.42,1.57,2.07.88,3.2-.68,1.13-2.6,2.5-2.06,3.09.54.59,3.59.5,5.21.79,1.63.3,3.75-.09,4.38,1.09.64,1.18.73,5.02,1.86,5.61,1.13.59,5.16.69,6.88.5,1.72-.2,3.78-.89,4.57-1.97.79-1.09,2.75-2.61,3.69-3.35.94-.74,2.31-1.97,2.75-1.97s.94.59.94,1.28-.79.98-.74,2.16c.05,1.18.65,1.68.44,2.71-.19,1.03-.64,2.16-.64,4.38s.2,6.3.39,7.09c.2.79,2.9,1.04,3.78,1.04s1.33.19,2.31-.89c.98-1.08,2.12-1.13,2.46-1.03.34.09,1.72.69,2.26.98.54.29,2.86-.45,3.1-.45s1.33-.09,1.82.15c.5.24,2.16,1.26,2.51,1.24.35,0,1.87-1.24,2.31-.5.44.74-1.53,2.36,1.03,2.02,2.56-.34,6.19-3.35,6.25-3.98.05-.64-.74-2.16.44-2.41,1.18-.24,3-.39,3.39-.39s.94.44,1.38,0c.45-.45,1.28-.94,1.68-1.57.39-.64.93-1.33,1.53-1.38.58-.05,3.34-.15,3.49-.25.15-.09,1.92-1.28,2.21-1.72.02-.02.03-.04.05-.06.31-.44.92-1.07,1.53-2.01.22-.34.53-.63.83-.87.59-.46,1.19-.71,1.19-.71,0,0,2.21-.2,3.63-.39,1.42-.2,5.26-.44,5.85-.29.59.14,2.51.49,2.9.35.39-.15,1.03-1.04,1.53-.94.49.09,1.72,1.08,1.72,1.77s-.88,2.06-.93,2.56c-.06.49-.39.98,0,1.67.39.69.39,1.24.05,1.72-.35.49-1.43,1.38-1.04,2.76.15.54.38,1.04.61,1.5.06.13.13.27.2.39.12.22.22.42.31.61,1.16-3.26,2.91-6.37,4.7-9.15,3.68-5.7,8.16-10.94,13.27-15.4,4.53-3.94,10.1-7.84,16.09-9.07,3.04-.63,5.77-.36,8.76.44,3.06.81,6.08,1.78,9.22,2.24-2.53-2.1-4.97-4.3-7.44-6.46-.18-.16-.08-.48.17-.49,6.35-.24,12.45-1.12,18.73.33,2.06.47,4.1,1.05,6.13,1.69-.47-.65-.94-1.3-1.38-1.96-1.25-1.87-2.39-3.84-3.15-5.96-.62-1.71-1.37-3.7-1.32-5.56.05-1.69.68-3.16,1.59-4.56,1.04-1.6,2.55-3.15,2.9-5.08-4.33.43-8.82,2.51-13.15,1.12-.17-.05-.28-.22-.2-.4.98-2.02,2.78-4.12,2.78-6.46-1.76.8-6.47,3.02-6.47,3.02,0,0-4.22-3.41-6.47-4.72-2.63-1.53-4.87-3.5-7.37-5.22-1.29-.89-2.63-1.44-4.01-2.14-.93-.47-1.72-.98-2.26-1.88-.08-.14-.05-.29.08-.39,2.61-1.9,5.88-2.79,9.03-3.3,3.43-.56,6.89-.69,10.35-.45,8,.57,15.88,2.5,22.84,6.6,6.14,3.62,11.83,8.23,17.08,13.02,5.29,4.84,10.34,10.18,14.64,16.04,2.27-5.54,5.13-10.88,8.74-15.65,1.17-1.54,2.42-3.02,3.75-4.43,6.76-7.13,15.4-11.89,25.16-13.32.15-.02.3.12.3.26.03,1.84-.24,3.87.39,5.64,2.5-3.02,4.74-6.09,8.9-6.69,3.79-.55,7.76-.02,11.56.2,4.04.23,8.1.65,12.04,1.59,3.58.85,7.3,2.05,10.1,4.54.14.12.11.34-.03.44-2.34,1.65-5.36,2.12-8.09,2.72-2.91.64-5.82,1.49-8.51,2.79-6.61,3.19-15.87,14.77-15.87,14.77,0,0-.27.11-.4.02-1.34-.99-2.8-1.86-4.28-2.64-1.32-.69-5.2-1.66-5.2-1.66,0,0,1.02,4.15,1.61,4.95.97,1.3,2.79,4.33,2.79,4.33,0,0-.1.38-.32.36-2.31-.17-4.58-.81-6.9-.73.67,1.47,2.13,2.38,2.9,3.81.05.1.07.25-.03.34-1.65,1.43-3.83,1.97-5.6,3.23-1.98,1.42-3.74,3.08-5.44,4.82-3.39,3.47-6.14,7.25-8.19,11.63,2.23-1.49,4.49-2.95,6.78-4.34,11.62-7.02,25.08-13.42,39-12.75,7.5.36,14.18,3.6,20.52,7.41,5.32,3.19,11.56,6.77,14.83,12.24.13.22-.05.45-.29.43-.04,0-.09-.01-.13-.02-.05.14-.2.26-.39.19-2.35-.91-5.04-.14-7.36.53-2.03.58-4.08,1.09-6.12,1.66-4.35,1.21-8.74,2.5-13.29,2.53-.14,0-.3-.1-.3-.26.06-1.73.27-3.52-.24-5.2-3.08,1.88-4.34,5.66-7.38,7.61-.17.11-.42,0-.43-.21-.19-3.61-1.96-6.62-4.13-9.4-1.65,1.84-2.88,3.98-4.16,6.09-.89,1.46-1.79,3.16-3.18,4.21-1.17.89-2.51,1.28-3.92,1.58-1.92.4-3.82.88-5.75,1.25-4.26.81-8.58,1.25-12.92,1.22.09.04.18.08.26.12,7.75,3.55,15.2,7.42,21.3,13.48,5.19,5.15,9.78,11.01,13.72,17.17,1.36,2.11,2.65,4.31,3.82,6.56,1.62-2.92,3.5-5.7,5.6-8.29,4.81-5.91,10.57-11.52,16.93-15.75,5.44-3.61,11.7-6.07,18.32-5.88,8.17.24,15.85,3.24,22.87,7.24.17.1.22.37.03.48-2.94,1.74-5.33,4.52-7.89,6.76-2.71,2.37-5.34,4.82-7.08,8.03-.08.14-.23.18-.38.13-2.49-.99-4.56-2.9-7.16-3.6.63,2.31,2.18,4.27,2.86,6.58.05.16-.03.29-.17.35-1.82.8-3.28,2.11-4.89,3.23-1.47,1.02-2.99,1.98-4.46,2.98-1.6,1.09-3.18,2.25-4.56,3.59,2.63-.61,5.3-1.02,7.97-1.26,7.05-.64,13.99.12,20.87,1.67,7.1,1.6,14.15,3.82,20.53,7.39.2.11.19.35.03.48-2.38,1.98-5.33,3.16-8.19,4.29-2.82,1.11-5.56,2.46-8.42,3.47-5.95,2.11-12.49,3.13-17.78,6.78-.19.13-.4-.02-.43-.21-.58-3.4-.27-6.84.07-10.25-1.93,1.08-2.84,3.44-3.75,5.35-.85,1.77-1.72,3.58-3.28,4.83-.17.14-.41-.03-.43-.21-.29-2.3.79-4.56.49-6.83-1.69,1.92-2.52,5.05-4.91,6.14-2.88,1.31-6.14,1.42-9.17,2.21-2.43.64-4.83,1.67-7.03,2.86-.87.47-1.96,1.05-2.9,1.77,5.73,3.6,10.92,8.02,15.36,13.15,4.75,5.49,8.56,11.75,11.47,18.39,2.97,6.75,5.55,13.9,6.52,21.24.98,7.39.29,14.66-1.35,21.91-.94,4.12-1.91,8.24-2.88,12.35-.58,2.44-1.21,5.07-2.5,7.28.47-.3.88-.53,1.1-.6.64-.2,2.86.2,3.45-.14.59-.35,1.86-2.02,2.06-2.31.2-.3,1.03-.65,1.68-.59.64.05,5.07,2.51,5.95,2.65.88.15,3.64-2.17,3.34-2.36-.29-.2-2.12-.74-2.31-.98-.2-.24-.64-.79-.34-1.08.29-.3,1.82-1.09,1.97-1.23.14-.15,2.06-1.33,2.89-1.78.83-.44,2.56-.49,2.56-.49,0,0,.69-.64.69-1.03s-1.13-1.33,0-2.12c.94-.65,2.94-1.24,3.72-1.39.17-.04.28-.05.31-.04.2.05,1.33.05.35.94-.98.88-1.33.93-1.47,1.32-.15.39-.54,1.09.09,1.09s1.97-.2,2.56-.35c.42-.11,1.13-.44,1.68-.85.21-.15.4-.32.54-.48.5-.59,1.38-1.08,1.82-1.08s2.85.05,3.09.39c.24.35.1.64,1.03.74.94.09,2.56,0,3.01-.1.44-.1,1.38-1.57,2.06-1.72.69-.14,2.27,0,2.27,0,0,0,8.31.05,9.19-.39.89-.44,1.72-.69,1.72-1.08v-1.03s-1.38-.5-1.42-.84c-.05-.34-.24-1.38.2-1.67.44-.3.83-.89,1.97-1.13,1.13-.24,1.92-.1,1.92-.69s-.59-1.24,0-1.53c.59-.3,3.88-.83,4.82-1.18s3.99-.94,3.64-2.22c-.35-1.28-1.33-2.8-1.53-3.49-.2-.69.54-1.72,1.13-3.94.05-.19.11-.37.18-.54.72-1.91,2.38-3.2,2.38-3.2,0,0,.06-.49.24-1.07.12-.43.3-.91.55-1.29.59-.89,1.47-1.04,2.3-2.31.84-1.28,2.02-4.24,2.9-5.61.89-1.39,1.57-3.1,2.21-3.79.64-.68,3.74-2.21,3.89-2.71.15-.49.54-3.54.54-3.54,0,0,.1-5.06,0-6.2-.1-1.13-.55-2.95.05-4.18.1-.22.23-.48.37-.75.47-.94,1.09-2.09,1.71-2.82.18-.21.35-.39.53-.52.94-.69,2.56-2.07,2.56-2.07,0,0,1.03-1.57.93-2.26-.09-.69-.79-4.18-.83-4.38-.05-.2-.35-4.09.3-6.54.64-2.46.93-5.22,1.62-7.09.68-1.87,1.18-3.25,1.27-3.94.1-.69-.05-4.78-.24-5.61-.2-.83-.1-3.74-.54-5.12-.44-1.38-1.08-2.8-.83-3.98.24-1.18,1.64-2.76,1.65-3,.02-.25-.06-2.02,0-3.05.07-1.03.28-2.56,0-3.54-.28-.98-.92-1.38-.39-2.31.54-.93,1.04-1.82.89-2.5-.15-.69-.93-1.92.02-2.96.96-1.03,3.02-3.39,3.37-3.05.35.35.05,1.77,1.28,1.28,1.23-.5,2.51-1.18,2.95-2.22.44-1.03,1.86-4.53,2.71-5.86.83-1.32,4.62-4.87,5.45-6.54.21-.43.57-1.1,1.01-1.91.09-.18.2-.37.3-.57.12-.21.24-.43.36-.66.14-.27.29-.54.43-.81.09-.16.17-.32.25-.47.17-.32.34-.62.5-.92.34-.64.65-1.23.91-1.7.04-.08.08-.15.12-.22.02-.03.03-.06.04-.09.06-.1.11-.2.16-.29.12-.24.2-.43.25-.53.23-.52,1-1.79,1.64-2.68.31-.46.6-.83.77-.96.2-.17.68-.6,1.21-1.07.76-.67,1.63-1.41,2.03-1.58.4-.17.7.14,1.13.08.03,0,.07-.02.11-.03.04,0,.08-.02.12-.04.1-.05.22-.12.34-.22.06-.05.13-.11.19-.17.1-.1.2-.22.31-.36.08-.1.17-.21.25-.34,1.38-1.97,5.41-6.89,6.25-7.77.83-.89,4.48-3.54,4.97-4.39.31-.53,2.13-3.56,3.53-5.93.8-1.36,1.47-2.5,1.63-2.83.4-.82,1.95-10.83,1.99-13.91,0-.25,0-.46-.02-.61Z"
        fill="url(#uuid-88648da7-1213-4394-9698-120b676f22fd)" />
    <path
        d="m212.61,257.04c.85-.41,1.7-.84,2.55-1.24,3.65-1.71,7.23-3.37,11.13-4.46,3.88-1.09,7.77-2.37,11.7-3.25,3.52-.79,7.1-1.31,10.7-1.62-.04-.03-.08-.05-.12-.08-3.8-2.81-7.62-5.79-11.05-9.04-2.31-2.19-4.99-4.74-6.27-7.72-1.57-3.66,2.98-9.47,2.98-9.47,0,0-4.54,2.26-7.15,2.25-.2,0,0,0-.27-.4-.27-.4,2.49-2.99,3.88-4.32,1.36-1.31,3.39-4.83,3.39-4.83,0,0-6.42,1.6-9.38,2.82-2.15.89-3.87,1.44-5.9-.04-.74-.54-1.44-1.13-2.17-1.68-.46,2.16-1.17,4.16-2.24,5.86,0,.03.02.05.02.09.06,6.09,1.91,19.15-1.81,26.57h0c-.31.63-.65,1.23-1.05,1.76,0,.05.02.08.01.13-.32,2.54-.49,5.96-.82,9.6.62-.31,1.24-.6,1.86-.9Z"
        fill="url(#uuid-89247402-9fbb-4813-90b9-542df551d5a7)" />
</svg>