<?xml version="1.0" encoding="UTF-8"?>
<svg xmlns="http://www.w3.org/2000/svg" xmlns:xlink="http://www.w3.org/1999/xlink"
    viewBox="0 0 1368.37 459.43">
    <defs>
        <linearGradient id="b" x1="-64.23" y1="77.46" x2="253.02" y2="469.24"
            gradientUnits="userSpaceOnUse">
            <stop offset="0" stop-color="#009d3a" />
            <stop offset="1" stop-color="#012676" />
        </linearGradient>
        <linearGradient id="c" x1="28.68" y1="44.73" x2="314.08" y2="397.16" xlink:href="#b" />
        <linearGradient id="d" x1="62.16" y1="97.86" x2="252.12" y2="332.44" xlink:href="#b" />
        <linearGradient id="e" x1="9.75" y1="37.62" x2="307.62" y2="405.46" xlink:href="#b" />
        <linearGradient id="f" x1="-42.09" y1="-3.94" x2="296.72" y2="414.46" xlink:href="#b" />
        <linearGradient id="g" x1="105.26" y1="-3.72" x2="360.67" y2="311.68" xlink:href="#b" />
        <linearGradient id="h" x1="60.9" y1="32.17" x2="321.06" y2="353.44" xlink:href="#b" />
        <linearGradient id="j" x1="477.52" y1="243.43" x2="1331.97" y2="257.75"
            gradientUnits="userSpaceOnUse">
            <stop offset="0" stop-color="#012676" />
            <stop offset="1" stop-color="#009d3a" />
        </linearGradient>
        <linearGradient id="k" x1="477.8" y1="226.75" x2="1332.25" y2="241.07" xlink:href="#j" />
        <linearGradient id="l" x1="477.54" y1="242.06" x2="1332" y2="256.38" xlink:href="#j" />
        <linearGradient id="m" x1="477.54" y1="241.98" x2="1332" y2="256.3" xlink:href="#j" />
        <linearGradient id="n" x1="477.6" y1="238.44" x2="1332.06" y2="252.76" xlink:href="#j" />
        <linearGradient id="o" x1="477.61" y1="237.84" x2="1332.07" y2="252.16" xlink:href="#j" />
        <linearGradient id="p" x1="477.63" y1="236.63" x2="1332.09" y2="250.95" xlink:href="#j" />
        <linearGradient id="q" x1="477.58" y1="239.73" x2="1332.03" y2="254.05" xlink:href="#j" />
        <linearGradient id="r" x1="477.7" y1="232.8" x2="1332.15" y2="247.12" xlink:href="#j" />
        <linearGradient id="s" x1="474.72" y1="410.33" x2="1329.18" y2="424.65" xlink:href="#j" />
        <linearGradient id="t" x1="474.7" y1="411.48" x2="1329.16" y2="425.8" xlink:href="#j" />
        <linearGradient id="u" x1="474.77" y1="407.28" x2="1329.23" y2="421.61" xlink:href="#j" />
        <linearGradient id="v" x1="474.93" y1="397.69" x2="1329.39" y2="412.01" xlink:href="#j" />
        <linearGradient id="w" x1="474.77" y1="407.28" x2="1329.23" y2="421.6" xlink:href="#j" />
        <linearGradient id="x" x1="474.77" y1="407.66" x2="1329.22" y2="421.98" xlink:href="#j" />
        <linearGradient id="y" x1="474.84" y1="403.4" x2="1329.29" y2="417.72" xlink:href="#j" />
    </defs>
    <g id="a">
        <path
            d="m207.16,396.4c-.74.64-1.92,2.02-2.75,2.71-.84.68-5.76,6.49-7.43,8.12-.66.63-1.92,2.01-3.26,3.5.22,1.75.43,3.5.65,5.23.53-.22,1.21-.26,2.06.17,1.72.88,3.69,1.67,4.57,2.95.31.45.83,1.07,1.39,1.72.11-.16.21-.33.33-.49.01-.55.24-1.09.85-1.45,1.88-1.13,1.65-7.44,1.91-9.44.43-3.24,1.14-6.53,2.33-9.58.27-.7.62-1.36,1.02-2.01-.01-.2-.01-.41.05-.64.12-.4.2-.81.31-1.2-.48.34-1.36-.19-2.04.4Z"
            fill="url(#b)" />
        <path
            d="m194.16,241.08c-.32-.81-.57-1.65-.67-2.54-.96-8.23,3.34-15.75,3.49-23.85,0-.38.13-.67.29-.93-.7-2.3-.94-4.67-.95-7.07-2.1,2.47-4.24,4.9-6.5,7.21-5.38,5.5-12.29,12.06-20.38,12.72-.12,0-.28-.19-.28-.19,0,0-.14-5.06.61-7.48-2.45,3.37-7.75,9.81-7.75,9.81l-.43-.21s1.9-9.87,3.15-14.78c-3.14,4.09-7.36,12.17-9.09,15.59.23.78.49,1.55.69,2.04.5,1.23.79,2.41.74,4.03-.06,1.62-.39,2.06-1.18,2.06s-1.97-.05-1.97.79,2.95,1.78,3.39,2.76c.44.99.83,2.76.83,4.58s.1,3.5.25,4.23c.14.74,3.54,1.63,4.18,1.68.64.05,10.87.64,11.9.64h3.49s1.38-1.97,1.72-.98c.35.98.68,1.48.14,2.56-.53,1.08-1.27,1.57-1.57,2.07-.29.49.1,3.49.5,4.72.39,1.23-1.08,1.32,1.57,3.39,1.33,1.03,2.37,1.6,3.12,1.93.76.33,1.23.43,1.4.53.25.14,1.37,1.42,1.95,2.21-2.33-8.1,3.1-20.9,7.37-27.52Z"
            fill="url(#c)" />
        <path
            d="m170.51,181.42c.53-.19,1.06-.38,1.58-.57-.4,0-.79,0-1.19.01-1.79.06-3.81.09-5.52.66-.94.31-1.86.68-2.79,1.02-1.16.42-2.34.88-3.55,1.15-.43.09-1.5,0-1.5,0l-.16-5.02s-5.39,3.86-5.04,4.03c-.13-.06-.36-.18-.36-.18,0,0,.29-3.87,1.05-5.73-1.65,2.13-4.88,6.43-4.88,6.43,0,0-6.01,1.5-8.99,2.04-.11.02-.29-.19-.29-.19,0,0,.82-6.52,2.05-9.62-1.67,2.68-5.57,7.64-5.57,7.64,0,0-2.51,2.39-4.1,3.01-1.98.77-4.09,1.02-6.19,1.1-4.75.19-9.42.28-14.08,1.4-4.36,1.05-8.46,2.75-12.35,4.94.06.21.14.41.25.61.98,1.77.79,2.07,2.95,5.37,2.16,3.29,5.99,5.26,7.47,5.95,1.48.68,2.9,1.03,3.45.98.54-.05,1.67-.24,2.36-.24s2.01,0,3.24.83c1.23.83,2.85,1.77,3.05,1.77.19,0,1.86-.69,1.86-.69,0,0,1.33.64,1.53,1.28.2.64.34,1.43,2.36,2.8.77.53,1.62.92,2.41,1.2,2.93-4.92,6.21-9.63,10.14-13.8,5.53-5.84,12.23-10.22,19.49-13.62,3.69-1.73,7.48-3.19,11.31-4.58Z"
            fill="url(#d)" />
        <path
            d="m234.47,327.14c-.77-7.01,4.86-15.27,7.46-21.49.52-1.25,1.24-2.78,2.14-4.26,1.79-5.38,1.57-15.88,3.82-23.72-3.63,2.62-7.44,4.98-11.59,6.63-3.31,1.32-6.78,2.15-10.09,3.45-1.5.59-5.56.54-5.56.54,0,0-1-3.87-.85-5.56.17-1.95.56-6.26.56-6.26,0,0-1.91,5.39-2.9,8.04-.93,2.5-4.6,7.18-4.6,7.18l-.26-.02-5.24-.34s.3-4.38.75-6.32c.44-1.88.97-3.74,1.51-5.6-1.96,2.79-3.21,6.02-5.07,8.88-.62,6.73-2.2,13.54-6.23,17.05.03,4.61-.16,11.13-1.21,17.43.66-.02,1.23-.06,1.59-.14,1.48-.35,1.63-1.82,2.22-1.82s1.23.35,1.77,1.08c.54.74,2.12,1.24,2.8,1.24s.59-.6,1.68,0c1.08.58,2.5,1.37,2.65,2.16.15.79.39,1.87.5,2.22.09.35.83.39.68,1.57s-.64,1.67-.59,2.8.74,1.57,1.09,2.41c.34.83.24,1.53.24,2.07s-.59,1.42-.1,2.41c.42.82.84,1.48.98,2.1.03.12.06.24.06.36,0,.73-.35,1.42,1.47,1.72,1.82.3,4.13.69,4.57.39.44-.29,1.87-.98,2.27-1.18s2.85-.29,2.9-.09c.04.14.53.92.88,1.51,1.41-4.3,4.25-8.91,5.94-11.71.91-1.5,2.22-3.19,3.78-4.72Z"
            fill="url(#e)" />
        <path
            d="m291.13,313.29c-.66-1.57-2.86-4.97-2.86-4.97,0,0,2.17-2.93,2.48-4.32-1.51.05-2.95.65-4.47.68-.16,0-.35-.15-.29-.33.48-1.53,1.62-2.64,2.35-4.03-1.79-.02-5.37.57-5.37.57l-.15-2.57s3.1-2.9,4.68-4.29c1.62-1.43,5.12-5.09,5.12-5.09,0,0-4.89,1.24-7.12,2.32-1.81.87-7.37,3.45-7.37,3.45l-1.76-1.23s-2.81-2.57-4.05-4.01c-2.71-3.15-5.21-6.55-7.32-10.16-1.42,7.52-4.41,15.02-7.18,22.32,2.85,8.26-3.98,22.25-7.5,29.02-.39,6.37-5.43,14.92-8.59,20.38.28,3.94-1.18,8.42-2.25,11.67-1.46,4.41-3.46,8.62-5.15,12.94.14,2.71-.11,5.45-.36,7.71-.49,4.33-1.06,9.16-2.64,13.41.64,1.11,1.09,2.39,1.27,3.85.76,6.18-1.8,11.78-3.94,17.45,2.74,4.03.12,11.4-2.69,17.59,1.43,1.18,3.28,1.66,3.28,1.66,0,0,1.13,1.08,2.11,2.06.99.98,2.17,2.06,2.17,2.91s.64,2.06,1.42,2.46c.79.39,2.56.59,3.04,1.18.5.59,1.67,1.77,1.09,2.61-.59.84-1.87,1.57-2.27,2.07-.39.5-1.38.44-1.86,1.57-.5,1.13-.74,1.47-.5,3.35.17,1.27-.14,3.41,1.52,3.89,1.65.48,3.78-2.59,4.94-3.5.75-.59,1.64-.72,2.3-1.4,1.62-1.68,2.61-4.4,3.34-6.57.53-1.6.93-3.35,2.11-4.56.67-.68,1.53-1.13,2.27-1.71,1.4-1.09,1.77-2.89,3.09-3.89,1.38-1.05,3.01-1.94,4.52-2.77,2.16-1.18,7.13-5.31,7.96-6.74.84-1.43,7.38-13.2,9-16.39.33-.65.84-1.44,1.47-2.29.1-.14.21-.29.32-.44.29-.38.59-.77.91-1.17,2.14-2.65,4.87-5.52,6.44-6.81.11-.09.21-.18.31-.25.09-.08.19-.15.28-.2,2.02-1.39,5.56-4.43,5.76-5.86.2-1.43.59-6.84,1.13-8.12.53-1.28.73-2.31.73-2.31,0,0-1.23-1.92-1.42-2.36-.2-.45-.44-2.56-.44-2.91s-.05-3.35,0-4.13c.05-.79,2.46-4.48,2.46-4.48,0,0-.44-.49-1.08-1.18-.42-.46-.98-1.02-1.24-1.62-.14-.31-.2-.62-.13-.94.2-.94,1.42-2.95,2.46-3.74.71-.54,2.99-1.95,4.52-3.42.73-.7,1.29-1.42,1.43-2.05.45-1.97,1.18-3.54,1.18-3.54,0,0,7.38-4.38,8.02-4.91.64-.54,1.57-.6,1.77-.79.2-.2.39-.74.98-1.57.16-.22.44-.5.78-.79-4.98-6.88-11.33-12.85-15.37-20.39-2.11-3.94-3.92-8.16-5.64-12.28Z"
            fill="url(#f)" />
        <path
            d="m450.31,147.7c-.25-1.97-.2-4.47-.79-7.18-.25-1.14-.75-2.99-1.28-4.88-.72-2.58-1.53-5.24-1.86-6.29-.59-1.82-1.72-6.25-2.31-7.13-.59-.89-2.66-3.74-3.59-3.94-.94-.2-3.64-.64-5.41-.3-1.77.35-2.21.69-4.28.39-2.06-.29-3.34,0-4.03-.73-.69-.74-2.16-.79-2.85-1.09-.27-.12-.72-.38-1.19-.71-.75-.53-1.6-1.2-1.96-1.65-.25-.31-.7-.76-1.19-1.2-.19-.18-.38-.36-.57-.54-.11-.1-.23-.21-.33-.31-.35-.33-.65-.63-.87-.86-.68-.73-2.21-1.82-3.44-2.36-1.23-.54-2.07-.98-2.75-1.77-.68-.79-3.25-3.64-3.25-3.64,0,0-.93-1.33-1.27-1.43-.35-.09-2.01-.88-2.51-1.18-.49-.29-3.78-2.95-6.05-4.38-2.26-1.42-6.29-4.62-7.17-4.68-.88-.05-5.16-.39-7.52-.19-.23.02-.49.05-.76.09-.13.02-.28.04-.43.06-.3.05-.61.09-.94.15-.33.06-.67.12-1.01.17-.21.04-.42.08-.64.11-.42.08-.83.15-1.25.22-.26.05-.5.09-.76.13-.51.08-1.02.16-1.48.21-.15.02-.31.04-.45.05-.1,0-.2.02-.3.02-.13.02-.24.02-.36.02-.38.02-.71.02-.96-.02-.17-.02-.35-.06-.55-.09-.21-.04-.44-.08-.67-.12-.02,0-.05,0-.07-.02-.05,0-.1-.02-.16-.03,0,0-.02,0-.03,0-.2-.04-.39-.09-.59-.13-.51-.12-1.02-.24-1.46-.36-.09-.02-.17-.05-.26-.07-.04,0-.07-.02-.1-.02-.1-.03-.2-.06-.29-.09-.09-.03-.18-.06-.26-.09-.27-.09-.46-.16-.52-.21-.29-.25-2.65-1.28-3.54-1.39-.1,0-.25-.03-.44-.05-.02,0-.03,0-.05,0-.07,0-.16-.02-.24-.03-.15-.02-.32-.03-.49-.06-.06,0-.13,0-.2-.02-.13-.02-.26-.03-.39-.05-.02,0-.03,0-.05,0-.08,0-.16-.02-.24-.03-.15-.02-.31-.03-.46-.06-.44-.06-.89-.12-1.3-.17-.06,0-.13-.02-.19-.02-.25-.03-.48-.06-.68-.09-.11,0-.21-.02-.31-.04-.03,0-.06,0-.1,0-.02,0-.03,0-.04,0-.09,0-.16-.02-.21-.02-.03,0-.05,0-.08,0-.05,0-.07,0-.09,0-.2,0-2.56-.89-2.56-.89,0,0-4.13-2.26-5.16-2.65-1.04-.39-2.17-1.33-3.4-.94-1.23.39-1.53.35-2.31,1.13-.79.79-2.65,1.67-2.65,1.67,0,0-.44-.93-.64-.98-.2-.05-1.97.64-1.97.64l-.39.09s-1.04-.59-.98-.94c.05-.34.09-1.43.15-1.76.05-.35-2.31-5.27-3.2-6.5-.88-1.23-3.39-4.82-4.03-4.87-.64-.05-1.97.64-2.31,1.13-.35.49-.94.98-1.28.69-.34-.29-1.47-2.36-1.72-2.51-.25-.14-2.8-1.67-3.25-1.82,0,0-.02,0-.06-.02-.02,0-.06-.02-.09-.03-.32-.1-1.09-.35-2.17-.68-.13-.04-.27-.09-.42-.13-.14-.05-.29-.09-.44-.14-.3-.09-.62-.19-.95-.29-.13-.04-.24-.08-.37-.12-.21-.06-.44-.13-.67-.2-.02,0-.05-.02-.07-.02-.24-.08-.5-.16-.76-.24-1.21-.38-2.53-.78-3.86-1.17-.2-.05-.42-.12-.62-.18-.6-.18-1.19-.35-1.78-.53-.28-.08-.56-.17-.83-.24-.36-.1-.71-.2-1.05-.3-.59-.17-1.15-.32-1.68-.47-.32-.09-.64-.17-.94-.25-.15-.04-.3-.08-.44-.12-.2-.05-.4-.1-.58-.15-.42-.1-.8-.2-1.14-.27-.12-.03-.24-.06-.35-.07-.26-.06-.48-.09-.67-.13-3.4-.5-7.03-1.13-7.47-.83-.44.29-3.01-.05-3.19-.1-.2-.05-2.22-.69-1.83-1.23.39-.54,1.04-1.38,1.04-1.38,0,0-.99-1.57-1.48-1.57s-2.16-.15-2.95.05c-.79.2-2.6.2-2.6.2,0,0-1.57-.35-2.07-1.38-.49-1.03-2.26-3.2-2.45-3.54-.2-.35-2.42-1.62-2.6-1.62h-1.72s-1.92-.05-2.07-.2c-.42-.44-.24-1.35-.24-1.87-.02-.75-.2-1.01-.39-1.66-.04-.15-.07-.29-.09-.43-.13-1.24.76-2.07,1.02-3.33,0-.03.79-3.75.64-4.92-.15-1.18-.44-3.54-.89-3.94-.44-.39-2.7-1.38-2.9-1.43-.2-.05-.69.69-1.13-.94-.44-1.63-.54-3.05-.94-3.35-.39-.3-1.52-.74-1.87-.74s-1.53.09-1.77-.09c-.24-.2-.54-1.48-.79-2.22-.24-.74-1.28-1.62-1.28-2.31s-1.47-3.59-1.71-5.85c-.25-2.27-.69-4.33-.69-5.17s.05-1.97.05-2.61-.29-2.26-.29-2.26l-.41-1.13-3.81-2.62s-1.05.13-1.18,1.31c-.13,1.18-1.31,4.07-2.23,4.86-.92.79-5.64,7.35-6.43,10.5-.79,3.15-2.88,5.38-3.8,6.43-.92,1.05-4.98,2.36-5.37,2.36s-3.15-.79-3.15-.79c0,0-3.93-.39-4.59-.13-.65.27-4.59.79-4.98.92-.39.13-4.85-.79-4.85-.79,0,0-.72-.75-1.5-1.51h0c-.83-.82-1.7-1.64-1.9-1.64-.39,0-3.15-.39-4.33.79-.34.34-.65.58-.94.77-.73.46-1.31.51-1.68.42-.53-.13-4.07-1.57-4.07-1.57,0,0-1.97,2.5-1.31,2.89.66.39,1.71,1.83,1.71,2.23,0,0,.42,2.46-.76,2.92-1.18.46-2.95-.56-4.03-.89-1.09-.32-3.81-.72-4.33-.39-.53.33-1.31.72-2.49.63-1.18-.1-3.08-.92-3.18-.92-.1,0-.56-.46-1.77.39-1.21.85-2.39,2.69-2.92,2.85-.53.17-2.72-.49-3.64,0-.91.5-.26,2.07-1.47,2.2-1.21.13-2.72-1.21-3.21-1.02-.5.2-1.41,1.84-1.71,2.4-.3.55-3.45,1.31-3.63,1.31-.08,0-.46-.07-.95-.17-.8-.16-1.85-.38-2.04-.43-.29-.06-2.36-.95-2.72-1.18-.35-.23-2.36-1.67-2.65-2.16-.29-.49-2.13-2.09-2.33-2.49-.2-.39-1.18-2.5-1.18-2.5,0,0,.62-1.68.26-2.59-.35-.92-2.45-2.13-2.68-2.76-.23-.63-.36-2.95-.33-3.18.03-.24.36-3.98.59-5.02s1.25-2.06,1.38-2.76c.13-.69-.17-1.83-.17-2.03s.27-1.94.27-1.94c0,0,3.11-1.65,3.15-2.5.03-.85-1.97-2.3-2.13-2.85-.16-.56-.42-1.68-.42-2.2s0-1.02-.27-1.15c-.26-.13-4.13-.95-4.13-.95,0,0,.03-1.09.46-1.77.42-.69,1.24-2.59,1.31-2.76,0,0,0,0,0,0h-6.52c-.1.28-.27.56-.56.79-.57.46-3.45,2.26-3.58,2.76-.13.49.42,1.35-.62,1.51-1.05.16-3.12.19-3.48.43-.36.23-2.49.76-2.82,1.34-.33.6-1.35,1.28-1.9,1.45-.55.17-2.56.79-3.12,1.08-.55.3-2.49.2-2.49.2,0,0-2.49-.56-2.86-.43-.35.13-3.05,1.45-2.98,1.94.06.49.23,3.38-.2,3.61-.42.24-1.08-.32-1.21-.26-.13.06-.72.39-.89.65-.16.27-.85.56-.85.56,0,0-.62-.59-.72-1.08-.09-.5-2.06-2.27-2.23-2.43-.17-.17-.85-.98-1.27-.82-.43.17-1.84,1.15-2.13,1.25-.3.09-1.68-.2-1.87-.27-.2-.06-2.36-.91-2.62-.79-.26.13-1.24.69-1.41.59-.17-.09-1.61-1.61-1.64-1.77-.04-.17.03-.76-1.02-.76s-2.39-.16-3.27-.46c-.89-.3-3.18-1.87-3.18-1.87,0,0-.76.79.62,2.2,1.38,1.41,3.08,2.62,4.19,3.54,1.12.91,3.05,2.23,3.12,2.56.06.32.13.88-.13,1.38-.26.49-.82.65-.82,1.05s.06,1.57.06,1.71c0,.13.03,1.9.76,2.56.72.65,1.77,1.38,1.94,2.09.17.72.26,1.57.06,2.04-.2.46-.23,1.64-.06,1.87.02.02.03.05.06.08,0,.02.02.04.04.06.02.04.06.09.09.13.03.04.06.08.09.12h0c.06.08.13.16.23.24.02.02.05.04.08.06.03.02.06.04.09.06.02,0,.02.02.04.02.05.03.1.06.16.09.02,0,.03.02.05.02.06.02.12.05.19.07,0,0,.02,0,.03,0,.11.03.24.06.37.08,1.08.17,2.75.46,3.11.13.36-.32,1.87-.62,1.97-.53.1.1.92.69.83,1.12-.06.26-.13,1.2-.31,1.97-.11.5-.27.91-.48,1.02-.56.27-2,.62-2.75,1.31-.76.69-1.57.85-2.07.65-.49-.2-2-.52-2.09-.2-.1.33.09,2.99-.2,3.68-.29.69-2.19,1.97-2.55,2.42-.36.46-.79,1.22-1.12,1.18-.33-.03-.79-.82-.79-.82,0,0-.53-.26-.98.26-.46.53-2.07,2.24-2.36,2.27-.3.03-1.23-.56-1.65-.39-.42.17-1.4.69-1.83,1.15-.43.46-1.35,1.08-1.5,1.35-.17.26-.24.95-.43,1.28-.2.33-1.14.2-1.53.56-.39.36-.76,1.41-.86,1.74-.09.32-1.21,1.02-1.21,1.02,0,0-1.24.06-1.24-.62s1.05-1.87,1.05-1.87c0,0-.2-.49-.36-.68-.17-.2-1.38-1.18-1.47-1.18-.1,0-1.54.33-1.74.49-.2.17-1.24,1.61-1.77,2.17-.53.56-3.61,1.18-4,.66-.39-.53-2.03-1.71-2.49-2.3-.46-.59-1.97-2.56-2.53-2.65-.56-.1-2.3-.33-2.42-.33-.13,0-1.09.2-1.28-.27-.2-.46-.43-3.08-.43-3.47s-.09-3.09-.3-3.38c-.19-.3-1.76-.53-1.97-1.09-.19-.56-.46-2.88-.46-2.88,0,0-.42-.89-.79-.76-.36.13-1.44.55-1.7,1.15-.27.58-.95,1.41-1.18,1.41s-1.64.06-1.84.35c-.2.3-.59.95-.82,1.09s-1.15.23-1.57-.06c-.42-.3-1.57-1.38-1.94-1.09-.36.3-.85.42-.62.85.23.43.98,1.05,1.08,1.28.1.23-.58.62-.68.62s-12.06-.36-12.59-.29c-.53.06-3.08-.27-3.41-.27s-2.75,1.25-2.75,2.53-.13,3.09.26,3.71c.39.62.92,1.47,1.64,1.68.72.19,2.6-.1,3.22.09s2.53.88,2.75,1.18c.23.3.39,1.44.39,1.44,0,0,.5,3.92-.42,3.58-.94-.35-2.57-.79-2.75-.84-.2-.05-2.61.45-2.61.45,0,0-1.53.19-1.86.41-.35.23-2.81.91-2.86,1.26-.05.35-.09,6.74.64,7.87.73,1.13.79,1.38,2.31,2.51,1.53,1.13,3.3,2.56,3.3,3.39s-.88,2.06.15,3.1c1.03,1.03,1.86,1.97,1.52,3.29-.34,1.33-1.42,10.68-1.82,13.14-.39,2.46-3.19,15.35-3.54,16.88-.34,1.53-1.18,6.3-2.21,6.69-1.03.39-3.1.64-3.54,0-.44-.64-.98-1.82-1.23-1.97-.25-.15-2.27.2-3.01.54-.73.35-1.86,1.38-1.97,1.82-.09.44-3.39.69-4.47.94-1.09.24-3.05,1.18-4.04,1.18s-2.36-.5-2.95,0c-.59.49-1.97,2.02-2.65,2.5-.69.5-5.85,3.5-6.49,3.94-.64.45-2.16.99-2.31,1.83-.15.83-1.03,2.61-1.03,3.83s-.35,2.51-.69,2.81c-.34.29-2.12,2.16-2.41,3.29-.29,1.13,1.92,3.89,1.57,4.43-.35.54-2.75,1.77-3.89,2.36-1.13.59-3.69,2.7-3.69,4.13s.05,1.97,0,2.5c-.05.54.45.89-.49,1.72-.94.84-1.13,1.33-1.13,2.16s1.18,2.46,1.83,2.91c.64.44.79,1.47.79,2.12s-.1,1.23.34,2.11c.45.89,1.09,2.46,1.42,3.06.35.59,1.83,1.33,2.17,1.82.34.5,2.26,2.12,3.24,3.54.98,1.42,1.57,2.07.88,3.2-.68,1.13-2.6,2.5-2.06,3.09.54.59,3.59.5,5.21.79,1.63.3,3.75-.09,4.38,1.09.64,1.18.73,5.02,1.86,5.61,1.13.59,5.16.69,6.88.5,1.72-.2,3.78-.89,4.57-1.97.79-1.09,2.75-2.61,3.69-3.35.94-.74,2.31-1.97,2.75-1.97s.94.59.94,1.28-.79.98-.74,2.16c.05,1.18.65,1.68.44,2.71-.19,1.03-.64,2.16-.64,4.38s.2,6.3.39,7.09c.2.79,2.9,1.04,3.78,1.04s1.33.19,2.31-.89c.98-1.08,2.12-1.13,2.46-1.03.34.09,1.72.69,2.26.98.54.29,2.86-.45,3.1-.45s1.33-.09,1.82.15c.5.24,2.16,1.26,2.51,1.24.35,0,1.87-1.24,2.31-.5.44.74-1.53,2.36,1.03,2.02,2.56-.34,6.19-3.35,6.25-3.98.05-.64-.74-2.16.44-2.41,1.18-.24,3-.39,3.39-.39s.94.44,1.38,0c.45-.45,1.28-.94,1.68-1.57.39-.64.93-1.33,1.53-1.38.58-.05,3.34-.15,3.49-.25.15-.09,1.92-1.28,2.21-1.72.02-.02.03-.04.05-.06.31-.44.92-1.07,1.53-2.01.22-.34.53-.63.83-.87.59-.46,1.19-.71,1.19-.71,0,0,2.21-.2,3.63-.39,1.42-.2,5.26-.44,5.85-.29.59.14,2.51.49,2.9.35.39-.15,1.03-1.04,1.53-.94.49.09,1.72,1.08,1.72,1.77s-.88,2.06-.93,2.56c-.06.49-.39.98,0,1.67.39.69.39,1.24.05,1.72-.35.49-1.43,1.38-1.04,2.76.15.54.38,1.04.61,1.5.06.13.13.27.2.39.12.22.22.42.31.61,1.16-3.26,2.91-6.37,4.7-9.15,3.68-5.7,8.16-10.94,13.27-15.4,4.53-3.94,10.1-7.84,16.09-9.07,3.04-.63,5.77-.36,8.76.44,3.06.81,6.08,1.78,9.22,2.24-2.53-2.1-4.97-4.3-7.44-6.46-.18-.16-.08-.48.17-.49,6.35-.24,12.45-1.12,18.73.33,2.06.47,4.1,1.05,6.13,1.69-.47-.65-.94-1.3-1.38-1.96-1.25-1.87-2.39-3.84-3.15-5.96-.62-1.71-1.37-3.7-1.32-5.56.05-1.69.68-3.16,1.59-4.56,1.04-1.6,2.55-3.15,2.9-5.08-4.33.43-8.82,2.51-13.15,1.12-.17-.05-.28-.22-.2-.4.98-2.02,2.78-4.12,2.78-6.46-1.76.8-6.47,3.02-6.47,3.02,0,0-4.22-3.41-6.47-4.72-2.63-1.53-4.87-3.5-7.37-5.22-1.29-.89-2.63-1.44-4.01-2.14-.93-.47-1.72-.98-2.26-1.88-.08-.14-.05-.29.08-.39,2.61-1.9,5.88-2.79,9.03-3.3,3.43-.56,6.89-.69,10.35-.45,8,.57,15.88,2.5,22.84,6.6,6.14,3.62,11.83,8.23,17.08,13.02,5.29,4.84,10.34,10.18,14.64,16.04,2.27-5.54,5.13-10.88,8.74-15.65,1.17-1.54,2.42-3.02,3.75-4.43,6.76-7.13,15.4-11.89,25.16-13.32.15-.02.3.12.3.26.03,1.84-.24,3.87.39,5.64,2.5-3.02,4.74-6.09,8.9-6.69,3.79-.55,7.76-.02,11.56.2,4.04.23,8.1.65,12.04,1.59,3.58.85,7.3,2.05,10.1,4.54.14.12.11.34-.03.44-2.34,1.65-5.36,2.12-8.09,2.72-2.91.64-5.82,1.49-8.51,2.79-6.61,3.19-15.87,14.77-15.87,14.77,0,0-.27.11-.4.02-1.34-.99-2.8-1.86-4.28-2.64-1.32-.69-5.2-1.66-5.2-1.66,0,0,1.02,4.15,1.61,4.95.97,1.3,2.79,4.33,2.79,4.33,0,0-.1.38-.32.36-2.31-.17-4.58-.81-6.9-.73.67,1.47,2.13,2.38,2.9,3.81.05.1.07.25-.03.34-1.65,1.43-3.83,1.97-5.6,3.23-1.98,1.42-3.74,3.08-5.44,4.82-3.39,3.47-6.14,7.25-8.19,11.63,2.23-1.49,4.49-2.95,6.78-4.34,11.62-7.02,25.08-13.42,39-12.75,7.5.36,14.18,3.6,20.52,7.41,5.32,3.19,11.56,6.77,14.83,12.24.13.22-.05.45-.29.43-.04,0-.09-.01-.13-.02-.05.14-.2.26-.39.19-2.35-.91-5.04-.14-7.36.53-2.03.58-4.08,1.09-6.12,1.66-4.35,1.21-8.74,2.5-13.29,2.53-.14,0-.3-.1-.3-.26.06-1.73.27-3.52-.24-5.2-3.08,1.88-4.34,5.66-7.38,7.61-.17.11-.42,0-.43-.21-.19-3.61-1.96-6.62-4.13-9.4-1.65,1.84-2.88,3.98-4.16,6.09-.89,1.46-1.79,3.16-3.18,4.21-1.17.89-2.51,1.28-3.92,1.58-1.92.4-3.82.88-5.75,1.25-4.26.81-8.58,1.25-12.92,1.22.09.04.18.08.26.12,7.75,3.55,15.2,7.42,21.3,13.48,5.19,5.15,9.78,11.01,13.72,17.17,1.36,2.11,2.65,4.31,3.82,6.56,1.62-2.92,3.5-5.7,5.6-8.29,4.81-5.91,10.57-11.52,16.93-15.75,5.44-3.61,11.7-6.07,18.32-5.88,8.17.24,15.85,3.24,22.87,7.24.17.1.22.37.03.48-2.94,1.74-5.33,4.52-7.89,6.76-2.71,2.37-5.34,4.82-7.08,8.03-.08.14-.23.18-.38.13-2.49-.99-4.56-2.9-7.16-3.6.63,2.31,2.18,4.27,2.86,6.58.05.16-.03.29-.17.35-1.82.8-3.28,2.11-4.89,3.23-1.47,1.02-2.99,1.98-4.46,2.98-1.6,1.09-3.18,2.25-4.56,3.59,2.63-.61,5.3-1.02,7.97-1.26,7.05-.64,13.99.12,20.87,1.67,7.1,1.6,14.15,3.82,20.53,7.39.2.11.19.35.03.48-2.38,1.98-5.33,3.16-8.19,4.29-2.82,1.11-5.56,2.46-8.42,3.47-5.95,2.11-12.49,3.13-17.78,6.78-.19.13-.4-.02-.43-.21-.58-3.4-.27-6.84.07-10.25-1.93,1.08-2.84,3.44-3.75,5.35-.85,1.77-1.72,3.58-3.28,4.83-.17.14-.41-.03-.43-.21-.29-2.3.79-4.56.49-6.83-1.69,1.92-2.52,5.05-4.91,6.14-2.88,1.31-6.14,1.42-9.17,2.21-2.43.64-4.83,1.67-7.03,2.86-.87.47-1.96,1.05-2.9,1.77,5.73,3.6,10.92,8.02,15.36,13.15,4.75,5.49,8.56,11.75,11.47,18.39,2.97,6.75,5.55,13.9,6.52,21.24.98,7.39.29,14.66-1.35,21.91-.94,4.12-1.91,8.24-2.88,12.35-.58,2.44-1.21,5.07-2.5,7.28.47-.3.88-.53,1.1-.6.64-.2,2.86.2,3.45-.14.59-.35,1.86-2.02,2.06-2.31.2-.3,1.03-.65,1.68-.59.64.05,5.07,2.51,5.95,2.65.88.15,3.64-2.17,3.34-2.36-.29-.2-2.12-.74-2.31-.98-.2-.24-.64-.79-.34-1.08.29-.3,1.82-1.09,1.97-1.23.14-.15,2.06-1.33,2.89-1.78.83-.44,2.56-.49,2.56-.49,0,0,.69-.64.69-1.03s-1.13-1.33,0-2.12c.94-.65,2.94-1.24,3.72-1.39.17-.04.28-.05.31-.04.2.05,1.33.05.35.94-.98.88-1.33.93-1.47,1.32-.15.39-.54,1.09.09,1.09s1.97-.2,2.56-.35c.42-.11,1.13-.44,1.68-.85.21-.15.4-.32.54-.48.5-.59,1.38-1.08,1.82-1.08s2.85.05,3.09.39c.24.35.1.64,1.03.74.94.09,2.56,0,3.01-.1.44-.1,1.38-1.57,2.06-1.72.69-.14,2.27,0,2.27,0,0,0,8.31.05,9.19-.39.89-.44,1.72-.69,1.72-1.08v-1.03s-1.38-.5-1.42-.84c-.05-.34-.24-1.38.2-1.67.44-.3.83-.89,1.97-1.13,1.13-.24,1.92-.1,1.92-.69s-.59-1.24,0-1.53c.59-.3,3.88-.83,4.82-1.18s3.99-.94,3.64-2.22c-.35-1.28-1.33-2.8-1.53-3.49-.2-.69.54-1.72,1.13-3.94.05-.19.11-.37.18-.54.72-1.91,2.38-3.2,2.38-3.2,0,0,.06-.49.24-1.07.12-.43.3-.91.55-1.29.59-.89,1.47-1.04,2.3-2.31.84-1.28,2.02-4.24,2.9-5.61.89-1.39,1.57-3.1,2.21-3.79.64-.68,3.74-2.21,3.89-2.71.15-.49.54-3.54.54-3.54,0,0,.1-5.06,0-6.2-.1-1.13-.55-2.95.05-4.18.1-.22.23-.48.37-.75.47-.94,1.09-2.09,1.71-2.82.18-.21.35-.39.53-.52.94-.69,2.56-2.07,2.56-2.07,0,0,1.03-1.57.93-2.26-.09-.69-.79-4.18-.83-4.38-.05-.2-.35-4.09.3-6.54.64-2.46.93-5.22,1.62-7.09.68-1.87,1.18-3.25,1.27-3.94.1-.69-.05-4.78-.24-5.61-.2-.83-.1-3.74-.54-5.12-.44-1.38-1.08-2.8-.83-3.98.24-1.18,1.64-2.76,1.65-3,.02-.25-.06-2.02,0-3.05.07-1.03.28-2.56,0-3.54-.28-.98-.92-1.38-.39-2.31.54-.93,1.04-1.82.89-2.5-.15-.69-.93-1.92.02-2.96.96-1.03,3.02-3.39,3.37-3.05.35.35.05,1.77,1.28,1.28,1.23-.5,2.51-1.18,2.95-2.22.44-1.03,1.86-4.53,2.71-5.86.83-1.32,4.62-4.87,5.45-6.54.21-.43.57-1.1,1.01-1.91.09-.18.2-.37.3-.57.12-.21.24-.43.36-.66.14-.27.29-.54.43-.81.09-.16.17-.32.25-.47.17-.32.34-.62.5-.92.34-.64.65-1.23.91-1.7.04-.08.08-.15.12-.22.02-.03.03-.06.04-.09.06-.1.11-.2.16-.29.12-.24.2-.43.25-.53.23-.52,1-1.79,1.64-2.68.31-.46.6-.83.77-.96.2-.17.68-.6,1.21-1.07.76-.67,1.63-1.41,2.03-1.58.4-.17.7.14,1.13.08.03,0,.07-.02.11-.03.04,0,.08-.02.12-.04.1-.05.22-.12.34-.22.06-.05.13-.11.19-.17.1-.1.2-.22.31-.36.08-.1.17-.21.25-.34,1.38-1.97,5.41-6.89,6.25-7.77.83-.89,4.48-3.54,4.97-4.39.31-.53,2.13-3.56,3.53-5.93.8-1.36,1.47-2.5,1.63-2.83.4-.82,1.95-10.83,1.99-13.91,0-.25,0-.46-.02-.61Z"
            fill="url(#g)" />
        <path
            d="m212.61,253.28c.85-.41,1.7-.84,2.55-1.24,3.65-1.71,7.23-3.37,11.13-4.46,3.88-1.09,7.77-2.37,11.7-3.25,3.52-.79,7.1-1.31,10.7-1.62-.04-.03-.08-.05-.12-.08-3.8-2.81-7.62-5.79-11.05-9.04-2.31-2.19-4.99-4.74-6.27-7.72-1.57-3.66,2.98-9.47,2.98-9.47,0,0-4.54,2.26-7.15,2.25-.2,0,0,0-.27-.4-.27-.4,2.49-2.99,3.88-4.32,1.36-1.31,3.39-4.83,3.39-4.83,0,0-6.42,1.6-9.38,2.82-2.15.89-3.87,1.44-5.9-.04-.74-.54-1.44-1.13-2.17-1.68-.46,2.16-1.17,4.16-2.24,5.86,0,.03.02.05.02.09.06,6.09,1.91,19.15-1.81,26.57h0c-.31.63-.65,1.23-1.05,1.76,0,.05.02.08.01.13-.32,2.54-.49,5.96-.82,9.6.62-.31,1.24-.6,1.86-.9Z"
            fill="url(#h)" />
    </g>
    <g id="i">
        <path
            d="m511.5,166.31c1.39-.35,2.6-.52,3.64-.52,4.51,0,9.79,1.26,15.86,3.77,6.07,2.51,10.49,5.25,13.26,8.19,6.93,7.97,10.4,18.37,10.4,31.2,0,5.03-.61,9.36-1.82,13-3.29,10.75-10.14,19.67-20.54,26.78-10.4,7.11-22.45,11.35-36.14,12.74-4.51.35-7.11,1.13-7.8,2.34-1.21,2.08-2.25,5.2-3.12,9.36-.87,4.16-1.56,7.02-2.08,8.58-.69,2.43-1.73,6.76-3.12,13-1.39,6.24-3.38,12.09-5.98,17.55s-4.94,8.54-7.02,9.23h-.52c-1.21,0-2.56-.73-4.03-2.21-1.48-1.47-2.47-3.16-2.99-5.07-.17-.52-.26-1.39-.26-2.6,0-2.42,1.99-10.05,5.98-22.88,2.08-6.76,4.42-16.46,7.02-29.12,2.6-12.65,5.89-23.75,9.88-33.28,1.91-4.33,5.63-14.39,11.18-30.16,5.03-14.39,7.8-22.1,8.32-23.14,1.39-2.95,4.68-5.2,9.88-6.76Zm17.42,20.02c-2.77-1.21-5.72-1.82-8.84-1.82-2.08,0-3.64.35-4.68,1.04-1.39,1.04-4.55,9.36-9.49,24.96-4.94,15.6-7.41,25.13-7.41,28.6,0,1.56,1.04,2.34,3.12,2.34,1.73,0,4.85-.69,9.36-2.08,10.92-3.81,18.98-10.66,24.18-20.54,1.73-3.29,2.6-6.41,2.6-9.36v-3.12c-.17-6.06-.87-10.57-2.08-13.52-1.21-2.95-3.47-5.11-6.76-6.5Z"
            fill="url(#j)" />
        <path
            d="m593.97,178.53c1.56-1.39,3.38-2.08,5.46-2.08,1.56,0,2.69.43,3.38,1.3,1.73,2.08,2.6,5.37,2.6,9.88,0,1.21-.17,2.51-.52,3.9-1.56,5.2-3.55,11.44-5.98,18.72-4.33,11.79-7.63,23.49-9.88,35.1-1.21,5.55-3.29,11.44-6.24,17.68-2.43,5.03-4.03,8.71-4.81,11.05-.78,2.34-1.52,5.85-2.21,10.53-.52,3.29-2.51,10.05-5.98,20.28-3.47,10.23-5.72,16.04-6.76,17.42-.87,1.21-2.34,2.34-4.42,3.38l-3.12,1.56-3.64-3.38c-2.6-2.6-4.16-4.59-4.68-5.98-.17-.34-.26-.78-.26-1.3,0-2.43,6.93-25.74,20.8-69.94.69-2.42,1.82-6.15,3.38-11.18,1.56-5.03,2.9-9.36,4.03-13,1.12-3.64,2.04-6.5,2.73-8.58,2.25-7.45,5.02-14.78,8.32-21.97,3.29-7.19,5.89-11.66,7.8-13.39Zm20.28-47.84c1.39-.52,2.6-.78,3.64-.78,1.56,0,3.08.43,4.55,1.3,1.47.87,2.21,1.99,2.21,3.38s-1.47,5.5-4.42,12.35c-2.95,6.85-5.03,10.96-6.24,12.35-1.04,1.21-2.34,1.82-3.9,1.82-2.08,0-3.73-.78-4.94-2.34-1.56-1.91-2.34-3.64-2.34-5.2,0-1.04.6-3.38,1.82-7.02,3.47-9.19,6.67-14.47,9.62-15.86Z"
            fill="url(#k)" />
        <path
            d="m727.94,168.65c.52-.35,1.08-.52,1.69-.52s1.21.09,1.82.26c.61.17,1.08.26,1.43.26s1.04.87,2.08,2.6c.87,1.56.95,4.16.26,7.8-2.25,11.44-8.06,30.59-17.42,57.46-2.43,6.93-7.54,22.27-15.34,46.02-7.97,24.09-14.04,37.36-18.2,39.78-1.73,1.04-3.47,1.21-5.2.52-2.77-1.04-4.68-4.59-5.72-10.66-.87-6.59-5.03-27.82-12.48-63.7-2.77-13.69-4.59-20.97-5.46-21.84-.17-.17-.35-.26-.52-.26-.52,0-2.25,3.99-5.2,11.96-8.84,23.92-16.03,46.28-21.58,67.08-2.6,9.36-5.46,14.91-8.58,16.64-1.04.35-1.73.52-2.08.52-2.77,0-4.94-1.73-6.5-5.2l-1.56-3.12,2.08-7.8c1.56-5.03,2.34-7.97,2.34-8.84,0-.52,1.17-4.55,3.51-12.09s4.85-15.69,7.54-24.44c2.69-8.75,4.29-14.52,4.81-17.29,1.04-4.51,2.04-8.49,2.99-11.96.95-3.47,1.78-6.24,2.47-8.32.69-2.08,1.86-5.29,3.51-9.62,1.65-4.33,3.16-8.49,4.55-12.48,3.47-10.23,5.81-16.77,7.02-19.63,1.21-2.86,2.77-5.42,4.68-7.67,1.73-1.91,3.55-2.86,5.46-2.86,3.81,0,6.54,2.69,8.19,8.06,1.65,5.38,4.2,19.42,7.67,42.12.35,2.08.74,4.51,1.17,7.28.43,2.77.78,5.07,1.04,6.89.26,1.82.48,3.08.65,3.77.52,2.25.78,5.2.78,8.84,0,2.6.6,6.98,1.82,13.13,1.21,6.15,2.08,9.49,2.6,10.01.34.35.95.17,1.82-.52.69-.69,4.16-9.45,10.4-26.26,6.24-16.81,9.71-26.86,10.4-30.16,1.21-4.51,5.29-15.34,12.22-32.5,3.12-7.62,6.07-12.05,8.84-13.26Z"
            fill="url(#l)" />
        <path
            d="m776.36,169.69c1.73-.35,3.21-.52,4.42-.52,5.72,0,13.52,2.43,23.4,7.28,6.24,3.29,12.22,10.23,17.94,20.8,5.72,10.92,8.58,20.11,8.58,27.56,0,6.07-1.73,13.87-5.2,23.4-7.46,20.8-17.6,37.61-30.42,50.44-17.16,17.16-33.37,25.74-48.62,25.74-.35,0-.91-.04-1.69-.13-.78-.08-1.43-.13-1.95-.13-4.34-.52-7.5-1.82-9.49-3.9-2-2.08-2.99-5.2-2.99-9.36,0-2.08.08-3.73.26-4.94.69-5.2,3.72-16.99,9.1-35.36,3.99-14.04,5.98-21.49,5.98-22.36,0-2.08,1.47-7.37,4.42-15.86,7.11-20.8,11.87-37.35,14.3-49.66.87-3.99,2.17-6.93,3.9-8.84,1.73-1.91,4.42-3.29,8.06-4.16Zm17.68,21.58c-2.43-1.04-5.12-1.56-8.06-1.56-2.43,0-3.9.35-4.42,1.04-.69.87-2.34,6.76-4.94,17.68-1.04,4.33-2.86,11.01-5.46,20.02-3.47,11.27-7.2,24.87-11.18,40.82-3.99,15.95-5.98,25.22-5.98,27.82,0,2.43,1.56,3.64,4.68,3.64,3.46,0,7.11-1.21,10.92-3.64,13.52-8.32,22.96-17.33,28.34-27.04,8.84-16.12,13.26-31.89,13.26-47.32,0-7.11-.96-12.83-2.86-17.16-1.04-2.43-3.04-5.11-5.98-8.06-2.95-2.95-5.72-5.03-8.32-6.24Z"
            fill="url(#m)" />
        <path
            d="m895.9,167.87c2.08-.52,3.81-.78,5.2-.78,1.21,0,3.38.26,6.5.78,15.42,2.6,24.44,11.96,27.04,28.08.52,3.64.78,8.67.78,15.08s-.26,11.96-.78,16.64c-2.25,19.07-7.37,36.92-15.34,53.56-2.43,5.03-6.2,10.58-11.31,16.64-5.11,6.07-10.01,10.75-14.69,14.04-4.51,3.12-9.79,5.81-15.86,8.06-6.07,2.25-11.18,3.38-15.34,3.38-.87,0-2-.17-3.38-.52-6.59-2.25-12.31-7.41-17.16-15.47-4.86-8.06-7.89-17.46-9.1-28.21-.35-3.81-.52-6.07-.52-6.76,0-2.42.61-6.93,1.82-13.52,1.56-9.19,2.9-15.64,4.03-19.37,1.12-3.73,3.34-9.66,6.63-17.81,4.68-11.27,10.05-20.89,16.12-28.86,4.16-5.2,9.79-10.35,16.9-15.47,7.11-5.11,13.26-8.28,18.46-9.49Zm10.92,17.16c-3.12-.69-5.38-1.04-6.76-1.04-4.16,0-8.67,1.3-13.52,3.9-6.93,3.47-14.13,12.87-21.58,28.21-7.45,15.34-12.13,30.38-14.04,45.11-.69,4.85-1.04,10.57-1.04,17.16,0,7.11.43,12.22,1.3,15.34,2.08,6.59,5.46,10.31,10.14,11.18.52.17,1.3.26,2.34.26,4.85,0,9.71-1.3,14.56-3.9,3.99-2.08,8.49-6.2,13.52-12.35,5.03-6.15,8.84-12.26,11.44-18.33,4.16-9.36,8.14-22.01,11.96-37.96,1.56-6.93,2.34-16.9,2.34-29.9,0-3.81-.17-6.59-.52-8.32-.87-4.51-4.25-7.62-10.14-9.36Z"
            fill="url(#n)" />
        <path
            d="m983.37,168.91c.69-.35,2.43-.52,5.2-.52,5.37,0,10.4.69,15.08,2.08,7.97,2.43,14.17,6.85,18.59,13.26,4.42,6.41,6.63,13.95,6.63,22.62,0,5.2-.95,10.83-2.86,16.9-2.25,7.45-7.63,15.25-16.12,23.4-4.51,4.33-7.71,7.11-9.62,8.32-1.91,1.21-5.03,2.34-9.36,3.38-6.41,1.56-9.62,3.47-9.62,5.72,0,.87,4.25,9.45,12.74,25.74,9.01,17.33,13.52,27.3,13.52,29.9,0,1.21-.43,2.25-1.3,3.12-1.21,1.21-2.69,1.82-4.42,1.82-3.99,0-7.19-1.56-9.62-4.68-.35-.52-4.42-7.58-12.22-21.19-7.8-13.6-11.87-20.67-12.22-21.19-1.04-1.21-2.25-1.78-3.64-1.69-1.39.09-2.34.74-2.86,1.95-.87,1.56-2.17,5.98-3.9,13.26-4.68,17.51-8.23,27.47-10.66,29.9-1.74,1.73-3.29,2.6-4.68,2.6-1.21,0-2.6-.78-4.16-2.34-1.91-2.25-2.86-4.42-2.86-6.5,0-2.6,1.3-8.49,3.9-17.68,2.08-6.76,4.9-16.77,8.45-30.03,3.55-13.26,6.37-23.44,8.45-30.55,4.16-13.87,7.54-25.91,10.14-36.14,3.12-12.83,5.55-20.8,7.28-23.92,1.73-3.12,5.11-5.63,10.14-7.54Zm12.48,17.68c-2.6-.69-4.33-1.04-5.2-1.04s-1.73.43-2.6,1.3c-1.04,1.04-4.08,10.75-9.1,29.12-4.68,17.51-7.02,26.87-7.02,28.08,0,.52.87.78,2.6.78,3.12,0,7.54-1.26,13.26-3.77,5.72-2.51,10.23-5.24,13.52-8.19,3.29-2.95,6.07-7.02,8.32-12.22,2.25-5.2,3.38-9.97,3.38-14.3,0-.35-.04-.82-.13-1.43-.09-.61-.13-1-.13-1.17-.7-3.99-2.56-7.54-5.59-10.66-3.03-3.12-6.8-5.29-11.31-6.5Z"
            fill="url(#o)" />
        <path
            d="m1077.23,170.21c1.04-.17,5.98-.26,14.82-.26h9.62c12.83.17,21.84.78,27.04,1.82,5.2,1.04,8.75,2.95,10.66,5.72.87,1.39.87,3.38,0,5.98-.69,1.91-1.39,5.63-2.08,11.18-.35,3.64-2.12,11.22-5.33,22.75-3.21,11.53-5.76,19.98-7.67,25.35-3.29,8.49-8.5,24.87-15.6,49.14-5.38,18.2-8.24,27.56-8.58,28.08-1.56,2.77-3.04,4.16-4.42,4.16s-2.86-.87-4.42-2.6c-1.56-1.56-2.34-3.55-2.34-5.98,0-3.99,2.25-13.43,6.76-28.34,5.37-18.37,8.06-28.25,8.06-29.64,0-.52-.17-.95-.52-1.3h-2.86c-7.63,0-14.3.09-20.02.26l-22.1.52-1.82,2.34c-1.39,1.73-2.08,3.04-2.08,3.9,0,.35-1.82,5.98-5.46,16.9-3.64,10.92-6.33,19.42-8.06,25.48-1.73,6.59-3.64,11.01-5.72,13.26-2.08,2.08-3.82,2.86-5.2,2.34-1.39-.52-2.6-1.82-3.64-3.9-.52-1.04-.78-2.08-.78-3.12,0-1.91,1.12-7.37,3.38-16.38,5.54-23.75,13.78-50.53,24.7-80.34,3.12-9.01,5.29-16.03,6.5-21.06,2.6-10.57,5.89-17.85,9.88-21.84,2.77-2.6,5.2-4.07,7.28-4.42Zm43.16,18.98c-1.91-1.21-11.09-1.82-27.56-1.82-4.16,0-7.46.17-9.88.52-2.25.35-3.73.95-4.42,1.82-.7.87-1.21,2.77-1.56,5.72-.17.69-1.21,4.2-3.12,10.53-1.91,6.33-3.68,12.52-5.33,18.59-1.65,6.07-2.47,9.62-2.47,10.66,0,1.21.52,2.17,1.56,2.86,2.08,1.04,11.18,1.56,27.3,1.56,7.28,0,11.44-.26,12.48-.78,2.6-1.56,3.9-4.16,3.9-7.8,0-.17.26-1.04.78-2.6.52-1.56,1.3-3.99,2.34-7.28,1.04-3.29,1.99-6.33,2.86-9.1,3.64-11.27,5.46-17.85,5.46-19.76,0-1.39-.78-2.43-2.34-3.12Z"
            fill="url(#p)" />
        <path
            d="m1181.07,174.89c1.38-.35,2.25-.52,2.6-.52,1.73,0,3.21,1.04,4.42,3.12.87,1.39,2.82,6.93,5.85,16.64,3.03,9.71,5.16,17.25,6.37,22.62,1.56,7.11,3.12,10.66,4.68,10.66,2.25,0,8.84-7.63,19.76-22.88,13.69-18.89,21.92-28.34,24.7-28.34,4.5,0,6.76,3.81,6.76,11.44,0,5.55-2.82,20.32-8.45,44.33-5.63,24.01-10.96,43.81-15.99,59.41-2.77,8.67-4.16,13.35-4.16,14.04,0,.17-1.21,3.38-3.64,9.62-2.43,5.9-4.42,9.36-5.98,10.4-1.74,1.04-3.29,1.56-4.68,1.56-3.29,0-4.94-2.43-4.94-7.28,0-3.99,2.77-16.03,8.32-36.14,6.93-26.17,10.4-42.99,10.4-50.44,0-1.04-.09-1.65-.26-1.82-.17-.17-.35-.26-.52-.26-1.73,0-6.24,5.03-13.52,15.08-3.81,5.38-6.54,8.75-8.19,10.14-1.65,1.39-3.68,2.08-6.11,2.08-2.6,0-4.42-.52-5.46-1.56s-2.51-5.03-4.42-11.96c-1.91-6.93-3.6-13.52-5.07-19.76-1.47-6.24-2.47-9.36-2.99-9.36-.35,0-.87.61-1.56,1.82-1.39,3.64-5.12,17.51-11.18,41.6-6.07,24.09-10.14,41.25-12.22,51.48-1.56,8.5-4.33,14.04-8.32,16.64-1.91,1.04-3.64,1.13-5.2.26-1.21-.69-2.52-1.91-3.9-3.64-1.56-2.08-2.34-4.16-2.34-6.24s1.56-8.49,4.68-19.24c.87-2.77,3.47-12.22,7.8-28.34,2.43-9.53,7.11-26.13,14.04-49.79,6.93-23.66,10.83-36.44,11.7-38.35,1.56-3.64,3.9-5.98,7.02-7.02Z"
            fill="url(#q)" />
        <path
            d="m1305.58,170.21c1.04-.17,5.98-.26,14.82-.26h9.62c12.83.17,21.84.78,27.04,1.82,5.2,1.04,8.75,2.95,10.66,5.72.87,1.39.87,3.38,0,5.98-.69,1.91-1.39,5.63-2.08,11.18-.35,3.64-2.12,11.22-5.33,22.75-3.21,11.53-5.76,19.98-7.67,25.35-3.29,8.49-8.5,24.87-15.6,49.14-5.38,18.2-8.24,27.56-8.58,28.08-1.56,2.77-3.04,4.16-4.42,4.16s-2.86-.87-4.42-2.6c-1.56-1.56-2.34-3.55-2.34-5.98,0-3.99,2.25-13.43,6.76-28.34,5.37-18.37,8.06-28.25,8.06-29.64,0-.52-.17-.95-.52-1.3h-2.86c-7.63,0-14.3.09-20.02.26l-22.1.52-1.82,2.34c-1.39,1.73-2.08,3.04-2.08,3.9,0,.35-1.82,5.98-5.46,16.9-3.64,10.92-6.33,19.42-8.06,25.48-1.73,6.59-3.64,11.01-5.72,13.26-2.08,2.08-3.82,2.86-5.2,2.34-1.39-.52-2.6-1.82-3.64-3.9-.52-1.04-.78-2.08-.78-3.12,0-1.91,1.12-7.37,3.38-16.38,5.54-23.75,13.78-50.53,24.7-80.34,3.12-9.01,5.29-16.03,6.5-21.06,2.6-10.57,5.89-17.85,9.88-21.84,2.77-2.6,5.2-4.07,7.28-4.42Zm43.16,18.98c-1.91-1.21-11.09-1.82-27.56-1.82-4.16,0-7.46.17-9.88.52-2.25.35-3.73.95-4.42,1.82-.7.87-1.21,2.77-1.56,5.72-.17.69-1.21,4.2-3.12,10.53-1.91,6.33-3.68,12.52-5.33,18.59-1.65,6.07-2.47,9.62-2.47,10.66,0,1.21.52,2.17,1.56,2.86,2.08,1.04,11.18,1.56,27.3,1.56,7.28,0,11.44-.26,12.48-.78,2.6-1.56,3.9-4.16,3.9-7.8,0-.17.26-1.04.78-2.6.52-1.56,1.3-3.99,2.34-7.28,1.04-3.29,1.99-6.33,2.86-9.1,3.64-11.27,5.46-17.85,5.46-19.76,0-1.39-.78-2.43-2.34-3.12Z"
            fill="url(#r)" />
        <path
            d="m363.08,370.18c4.16-.17,7.58-.26,10.27-.26,10.83,0,17.46.35,19.89,1.04,1.3.35,2.6,1.02,3.9,2.01,1.3,1,1.95,1.89,1.95,2.67,0,.7-.3,1.43-.91,2.21-.61.78-1.3,1.34-2.08,1.69-.69.35-1.73.52-3.12.52-1.65,0-3.16-.04-4.55-.13-.96-.08-2.21-.13-3.77-.13-3.29,0-5.24.69-5.85,2.08-.17.52-.69,2.69-1.56,6.5-.52,2.51-1.78,8.23-3.77,17.16-1.99,8.93-3.38,15.3-4.16,19.11-.61,3.55-1.49,7.63-2.67,12.22-1.17,4.59-1.97,7.19-2.4,7.8-.87,1.3-2.12,2.12-3.77,2.47-.69.17-1.6-.21-2.73-1.17-1.39-1.21-2.08-2.55-2.08-4.03,0-1.3.74-5.42,2.21-12.35,2.17-9.88,3.34-15.08,3.51-15.6,1.73-6.24,3.68-14.34,5.85-24.31.69-3.64,1.04-6.2,1.04-7.67,0-.95-.13-1.47-.39-1.56-.52-.26-2.51-.39-5.98-.39-3.73,0-6.11-.26-7.15-.78-.69-.35-1.47-1.02-2.34-2.02-.87-1-1.3-1.71-1.3-2.14,0-.17.43-.78,1.3-1.82,1.13-1.3,2.25-2.1,3.38-2.41,1.13-.3,3.55-.54,7.28-.71Z"
            fill="url(#s)" />
        <path
            d="m445.85,372.13c.61-.35,1.26-.52,1.95-.52,1.65,0,2.95.82,3.9,2.47.26.52.39.95.39,1.3,0,.52-.65,2.86-1.95,7.02-2.77,9.01-4.25,14.43-4.42,16.25-.09.95-1,4.9-2.73,11.83-1.73,6.94-2.95,11.53-3.64,13.78-1.56,4.85-3.99,9.77-7.28,14.75-3.29,4.99-6.15,8.04-8.58,9.17-2.51,1.13-5.72,1.69-9.62,1.69-1.04,0-1.73-.04-2.08-.13-3.73-.78-6.93-3.01-9.62-6.7-2.69-3.68-4.33-8.21-4.94-13.58-.17-1.73-.26-2.82-.26-3.25,0-1.21.52-4.2,1.56-8.97,1.04-4.59,2.25-9.45,3.64-14.56.69-2.34,1.69-6.02,2.99-11.05,1.3-5.03,2.43-9.01,3.38-11.96,1.04-3.21,1.89-5.31,2.54-6.3.65-1,1.58-1.5,2.79-1.5.87,0,1.75.35,2.67,1.04.91.69,1.36,1.34,1.36,1.95,0,.26-1,3.94-2.99,11.05-4.16,14.56-6.8,24.12-7.93,28.67-1.13,4.55-1.69,8.34-1.69,11.38,0,.26.02.67.06,1.23.04.57.06,1.02.06,1.37.17,3.55.63,6.22,1.37,8,.74,1.78,1.97,3.1,3.71,3.96,1.12.43,2.08.65,2.86.65s1.43-.04,1.95-.13c1.73-.26,3.14-.69,4.22-1.3,1.08-.6,2.36-1.73,3.83-3.38,2.86-3.03,5.24-7.62,7.15-13.78,1.21-4.16,2.92-10.4,5.13-18.72,2.21-8.32,3.36-13.04,3.45-14.17.17-1.56.56-3.46,1.17-5.72,1.82-6.85,3.68-10.79,5.59-11.83Z"
            fill="url(#t)" />
        <path
            d="m477.23,368.62c.35-.17,1.21-.26,2.6-.26,2.69,0,5.2.35,7.54,1.04,3.99,1.21,7.08,3.42,9.29,6.63,2.21,3.21,3.31,6.98,3.31,11.31,0,2.6-.48,5.42-1.43,8.45-1.13,3.73-3.81,7.63-8.06,11.7-2.25,2.17-3.86,3.55-4.81,4.16-.95.61-2.51,1.17-4.68,1.69-3.21.78-4.81,1.73-4.81,2.86,0,.43,2.12,4.72,6.37,12.87,4.51,8.67,6.76,13.65,6.76,14.95,0,.61-.22,1.13-.65,1.56-.61.61-1.34.91-2.21.91-1.99,0-3.6-.78-4.81-2.34-.17-.26-2.21-3.79-6.11-10.6-3.9-6.8-5.94-10.33-6.11-10.59-.52-.61-1.13-.89-1.82-.84-.69.04-1.17.37-1.43.97-.43.78-1.08,2.99-1.95,6.63-2.34,8.75-4.12,13.74-5.33,14.95-.87.87-1.65,1.3-2.34,1.3-.61,0-1.3-.39-2.08-1.17-.95-1.12-1.43-2.21-1.43-3.25,0-1.3.65-4.25,1.95-8.84,1.04-3.38,2.45-8.38,4.23-15.01,1.78-6.63,3.19-11.72,4.23-15.28,2.08-6.93,3.77-12.96,5.07-18.07,1.56-6.41,2.77-10.4,3.64-11.96.87-1.56,2.56-2.82,5.07-3.77Zm6.24,8.84c-1.3-.35-2.17-.52-2.6-.52s-.87.22-1.3.65c-.52.52-2.04,5.38-4.55,14.56-2.34,8.75-3.51,13.43-3.51,14.04,0,.26.43.39,1.3.39,1.56,0,3.77-.63,6.63-1.88,2.86-1.26,5.11-2.62,6.76-4.1,1.65-1.47,3.03-3.51,4.16-6.11,1.12-2.6,1.69-4.98,1.69-7.15,0-.17-.02-.41-.06-.71-.04-.3-.06-.5-.06-.58-.35-1.99-1.28-3.77-2.8-5.33-1.52-1.56-3.4-2.64-5.65-3.25Z"
            fill="url(#u)" />
        <path
            d="m524.55,373.43c.78-.69,1.69-1.04,2.73-1.04.78,0,1.34.22,1.69.65.87,1.04,1.3,2.69,1.3,4.94,0,.61-.09,1.26-.26,1.95-.78,2.6-1.78,5.72-2.99,9.36-2.17,5.89-3.81,11.74-4.94,17.55-.61,2.77-1.65,5.72-3.12,8.84-1.21,2.51-2.02,4.36-2.41,5.53-.39,1.17-.76,2.92-1.1,5.26-.26,1.65-1.26,5.03-2.99,10.14-1.73,5.11-2.86,8.02-3.38,8.71-.44.61-1.17,1.17-2.21,1.69l-1.56.78-1.82-1.69c-1.3-1.3-2.08-2.29-2.34-2.99-.09-.17-.13-.39-.13-.65,0-1.21,3.47-12.87,10.4-34.97.35-1.21.91-3.08,1.69-5.59.78-2.51,1.45-4.68,2.02-6.5.56-1.82,1.02-3.25,1.36-4.29,1.13-3.73,2.51-7.39,4.16-10.99,1.65-3.6,2.95-5.83,3.9-6.7Zm10.14-23.92c.69-.26,1.3-.39,1.82-.39.78,0,1.54.22,2.27.65.74.44,1.11,1,1.11,1.69s-.74,2.75-2.21,6.17c-1.47,3.42-2.51,5.48-3.12,6.17-.52.61-1.17.91-1.95.91-1.04,0-1.86-.39-2.47-1.17-.78-.95-1.17-1.82-1.17-2.6,0-.52.3-1.69.91-3.51,1.73-4.59,3.34-7.23,4.81-7.93Z"
            fill="url(#v)" />
        <path
            d="m563.05,369.66c1.21-.35,2.56-.52,4.03-.52,2.34,0,4.68.35,7.02,1.04,3.47,1.04,6.31,3.01,8.52,5.92,2.21,2.91,3.31,5.96,3.31,9.17,0,1.91-.43,3.68-1.3,5.33-.96,2-2.12,2.99-3.51,2.99-.52,0-1.08-.13-1.69-.39-1.47-.6-2.38-2.47-2.73-5.59-.43-3.81-1.52-6.33-3.25-7.54-.78-.6-2.21-.95-4.29-1.04h-1.3c-1.3,0-2.56.39-3.77,1.17-2.86,1.65-4.42,4.08-4.68,7.28v1.17c0,1.91,1.39,4.68,4.16,8.32,5.37,7.02,8.71,12.65,10.01,16.9.78,2.25,1.17,5.89,1.17,10.92,0,2.95-.17,5.11-.52,6.5-1.82,8.75-7.06,14.21-15.73,16.38-1.99.43-3.25.65-3.77.65s-1.43-.13-2.73-.39c-5.98-1.21-10.23-3.18-12.74-5.92-2.51-2.73-3.94-7.08-4.29-13.07-.09-.95-.13-2.17-.13-3.64,0-2.51.69-5.2,2.08-8.06,1.91-3.73,3.94-5.59,6.11-5.59,2.51,0,3.77,1.34,3.77,4.03,0,1.39-.39,3.12-1.17,5.2-.44,1.21-.74,3.25-.91,6.11v1.82c0,3.73,1.04,6.63,3.12,8.71l1.82,1.95,3.51-.26c6.15-.26,9.92-3.33,11.31-9.23.69-2.95,1.04-5.33,1.04-7.15,0-4.07-2.12-8.84-6.37-14.3-4.33-5.63-7.15-10.79-8.45-15.47-.43-1.56-.65-3.21-.65-4.94,0-2.95.52-5.5,1.56-7.67,1.04-2.25,2.69-4.44,4.94-6.57,2.25-2.12,4.42-3.53,6.5-4.22Z"
            fill="url(#w)" />
        <path
            d="m610.05,371.61c.69-.17,1.12-.26,1.3-.26.87,0,1.6.52,2.21,1.56.43.69,1.41,3.47,2.92,8.32,1.52,4.86,2.58,8.62,3.19,11.31.78,3.55,1.56,5.33,2.34,5.33,1.12,0,4.42-3.81,9.88-11.44,6.85-9.45,10.96-14.17,12.35-14.17,2.25,0,3.38,1.91,3.38,5.72,0,2.78-1.41,10.16-4.23,22.17-2.82,12-5.48,21.91-8,29.71-1.39,4.33-2.08,6.67-2.08,7.02,0,.09-.61,1.69-1.82,4.81-1.21,2.95-2.21,4.68-2.99,5.2-.87.52-1.65.78-2.34.78-1.65,0-2.47-1.21-2.47-3.64,0-1.99,1.39-8.01,4.16-18.07,3.47-13.09,5.2-21.49,5.2-25.22,0-.52-.04-.82-.13-.91-.09-.09-.17-.13-.26-.13-.87,0-3.12,2.52-6.76,7.54-1.91,2.69-3.27,4.38-4.1,5.07-.82.69-1.84,1.04-3.05,1.04-1.3,0-2.21-.26-2.73-.78-.52-.52-1.26-2.51-2.21-5.98-.95-3.47-1.8-6.76-2.53-9.88-.74-3.12-1.23-4.68-1.5-4.68-.17,0-.43.3-.78.91-.69,1.82-2.56,8.75-5.59,20.8-3.03,12.05-5.07,20.63-6.11,25.74-.78,4.25-2.17,7.02-4.16,8.32-.95.52-1.82.56-2.6.13-.61-.35-1.26-.95-1.95-1.82-.78-1.04-1.17-2.08-1.17-3.12s.78-4.25,2.34-9.62c.43-1.39,1.73-6.11,3.9-14.17,1.21-4.76,3.55-13.06,7.02-24.89,3.47-11.83,5.42-18.22,5.85-19.17.78-1.82,1.95-2.99,3.51-3.51Z"
            fill="url(#x)" />
        <path
            d="m683.55,368.1c1.04-.26,1.91-.39,2.6-.39.6,0,1.69.13,3.25.39,7.71,1.3,12.22,5.98,13.52,14.04.26,1.82.39,4.33.39,7.54s-.13,5.98-.39,8.32c-1.13,9.53-3.68,18.46-7.67,26.78-1.21,2.51-3.1,5.29-5.66,8.32-2.56,3.04-5,5.38-7.34,7.02-2.25,1.56-4.9,2.9-7.93,4.03-3.03,1.13-5.59,1.69-7.67,1.69-.44,0-1-.08-1.69-.26-3.29-1.12-6.15-3.71-8.58-7.74-2.43-4.03-3.94-8.73-4.55-14.1-.17-1.91-.26-3.03-.26-3.38,0-1.21.3-3.47.91-6.76.78-4.59,1.45-7.82,2.02-9.68.56-1.86,1.67-4.83,3.31-8.91,2.34-5.63,5.03-10.44,8.06-14.43,2.08-2.6,4.9-5.18,8.45-7.74,3.55-2.55,6.63-4.14,9.23-4.75Zm5.46,8.58c-1.56-.34-2.69-.52-3.38-.52-2.08,0-4.33.65-6.76,1.95-3.47,1.73-7.06,6.43-10.79,14.1-3.73,7.67-6.07,15.19-7.02,22.55-.35,2.43-.52,5.29-.52,8.58,0,3.55.22,6.11.65,7.67,1.04,3.29,2.73,5.16,5.07,5.59.26.09.65.13,1.17.13,2.43,0,4.85-.65,7.28-1.95,1.99-1.04,4.25-3.1,6.76-6.17,2.51-3.08,4.42-6.13,5.72-9.17,2.08-4.68,4.07-11.01,5.98-18.98.78-3.46,1.17-8.45,1.17-14.95,0-1.91-.09-3.29-.26-4.16-.43-2.25-2.12-3.81-5.07-4.68Z"
            fill="url(#y)" />
    </g>
</svg>